<svg class="logo logo-abcbs" version="1.1" viewBox="0 0 120 15.204" x="0" xml:space="preserve" xmlns="http://www.w3.org/2000/svg" y="0"><path d="M18.2.907s-1.847 3.87 1.231 9.587c2.254 4.185 4.222 3.343 4.222 3.343s.708-.708 1.935-2.111c.616-.704 3.721-3.365 2.199-10.467-.263-1.231-1.891 1.056-4.925.968C19.827 2.139 18.2.907 18.2.907M14.007 14.897a.784.784 0 1 0 .001-1.569.784.784 0 0 0-.001 1.569M28.058 14.897a.784.784 0 1 0 .001-1.569.784.784 0 0 0-.001 1.569M7.513 11.726a4.266 4.266 0 1 0 0-8.532 4.266 4.266 0 0 0 0 8.532" fill="#fff"></path><path d="M18.215.894s-1.848 3.872 1.232 9.591c2.254 4.187 4.224 3.344 4.224 3.344s.708-.708 1.936-2.112c.616-.704 3.722-3.367 2.2-10.472-.264-1.232-1.892 1.056-4.928.968-3.036-.087-4.664-1.319-4.664-1.319M14.02 14.89a.785.785 0 1 0 0-1.57.785.785 0 0 0 0 1.57M28.077 14.89a.785.785 0 1 0 0-1.57.785.785 0 0 0 0 1.57M7.523 11.717a4.268 4.268 0 1 0 0-8.536 4.268 4.268 0 0 0 0 8.536" fill="#fff"></path><path d="M6.573 4.948s-.106-.101-.176-.449a.823.823 0 0 1 .014-.353c.028-.097-.025-.146-.119-.108 0 0-.323.131-.626.307-.53.31-.748.585-.748.585-.063.08-.031.145.07.145h1.534c.102-.001.124-.057.051-.127M7.356 8.635l-1.233 1.839a.175.175 0 0 0 .055.249s.352.214 1.28.214c.929 0 1.325-.237 1.325-.237a.17.17 0 0 0 .052-.246L7.564 8.632c-.058-.083-.152-.082-.208.003" fill="#0093d0"></path><path d="M10.83 4.067V.011H4.055v4.055H0v6.774h4.055v4.055h6.775V10.84h4.055V4.067H10.83zm-3.388-.794c1.63 0 3.04.944 3.713 2.316l-2.81.061s-.381.024-.6-.241c-.108-.132-.155-.403-.022-.553a.95.95 0 0 0 .241-.537c.035-.235-.305-.553-.46-.553l-.09.004c-.155 0-.494.312-.464.553a.993.993 0 0 0 .243.531c.133.155.089.42-.022.553-.223.265-.597.243-.597.243l-2.883.021a4.133 4.133 0 0 1 3.751-2.398M3.309 7.407c0-.502.089-.983.254-1.428l2.856.224s.443.111.443.597c0 .332-.155.442-.155.442l-1.823 3.411a4.125 4.125 0 0 1-1.575-3.246m4.133 4.134a4.114 4.114 0 0 1-2.247-.664L7.127 7.95s.155-.243.331-.243c.179 0 .334.242.334.242l1.905 2.922a4.107 4.107 0 0 1-2.255.67m2.57-.897L8.213 7.241s-.156-.109-.156-.438c0-.489.444-.6.444-.6l2.79-.303a4.123 4.123 0 0 1-1.279 4.744" fill="#0093d0"></path><path d="M9.963 5.075c.101 0 .133-.065.07-.145 0 0-.217-.275-.748-.585-.303-.176-.626-.307-.626-.307-.094-.038-.147.01-.118.108 0 0 .051.176.015.354-.072.348-.178.448-.178.448-.073.07-.05.127.051.127h1.534zM6.147 6.762l-1.934-.167a.219.219 0 0 0-.224.164s-.141.626-.071 1.125c.178 1.238.72 1.676.72 1.676.079.063.183.043.23-.047L6.243 6.94c.047-.089.005-.169-.096-.178M10.677 6.595l-1.933.167c-.1.009-.145.089-.097.179l1.374 2.572c.048.09.152.111.231.047 0 0 .543-.437.72-1.676.071-.499-.07-1.126-.07-1.126a.22.22 0 0 0-.225-.163M27.977.011s-1.947 1.345-5.01 1.345c-3.061 0-5.009-1.345-5.009-1.345s-4.534 9.035 5.021 14.879C32.535 9.046 27.977.011 27.977.011m-2.155 10.928a10.675 10.675 0 0 1-2.503 2.362c-.214.113-.551.15-.765-.009-3.25-2.306-4.847-5.827-4.287-9.778a9.522 9.522 0 0 1 .467-1.858c1.41.775 3.053 1.018 4.8.953 1.317-.084 2.559-.327 3.651-.953 1.112 3.025.607 6.807-1.363 9.283" fill="#0093d0"></path><path d="M26.83 2.534c-2.278.943-5.444.943-7.723-.009-.999 3.838.299 7.658 3.502 10.03.15.065.262.327.448.186 3.372-2.335 4.792-6.257 3.773-10.207m-4.417 1.05c.058-.197.329-.112.329-.112.279.016.83.087.772.413-.105.592.197.499.197.499l.395-.325c.695-.116.347.557.347.557l-.811.881c-.163-.093-1.183-.139-1.183-.139-.116-.255.023-.186.186-.232.161-.046.347-.232.347-.232s.14.093.325.162c.185.07.185-.069-.024-.162-.209-.092-.093-.278-.093-.278s.07-.557-.626-.719c-.258-.06-.2-.182-.161-.313m.371 7.989c-.093.071-.093.325-.093.325-.208.116-.186-.092-.186-.092-.092-.324.232-.673.232-.673s.14.372.047.44m.567.593c-.208.302-.382 0-.382 0l-.053-1.519s.434.232.481.394l-.046 1.125zm.291-1.055c-.116.035-.081-.128-.081-.128.012-.243-.684-.522-.684-.522-1.392-.718-.278-1.369-.278-1.369.185-.127.092.209.092.209.081.487.661.685.661.685.869.487.405 1.09.29 1.125m-.789-2.459l.626.22-.042 1.067c-.447-.267-.561-.533-.561-.533l-.023-.754zm.917 1.16c-.128.046-.151-.07-.151-.07-.034-.43.012-.766.012-.766.093-.069.046-.104.046-.104s-.487-.22-.975-.371c-.487-.151-.625-.325-.625-.325-.441-.684.196-.834.196-.834.093-.07.093 0 .22.255.128.255.278.255.278.255l.65.163c1.159.266 1.171.475 1.171 1.067.001.59-.822.73-.822.73M22.367 6.89c.023-.059.116-.279.278-.233 0 0 .638-.08.881.117 0 0 .067.392-.017.974-.017.117-.087.088-.087.088-.154-.009-.49-.115-.707-.158 0 0-.372-.731-.348-.788m2.249.045c-.104.905-.905.777-.905.777-.034-.325 0-.731 0-.731.256-.371-.314-.51-1.368-.51-.974 0-1.778-.601-1.716-1.599.07-1.138 1.484-.975 1.484-.975-.072-.009 0 0 0 0s-.07.603.487.255c0 0 .281.094.366.311 0 0 .051.221-.158.217-.082-.003-.386-.054-.556-.075 0 0-.134-.023-.032.075.065.063.359.125.404.169 0 0 .093.166-.372.093-.441-.069-.673-.22-.719-.069-.042.132.186.672 1.206.718.983.044 1.999.301 1.879 1.344M27.21 14.094a.862.862 0 1 1 1.724.006.862.862 0 0 1-1.724-.006m1.588 0c0-.418-.305-.746-.723-.746-.421 0-.728.328-.728.746 0 .423.307.751.728.751.418-.001.723-.329.723-.751m-.294.482h-.141l-.275-.443h-.216v.443h-.119v-.961h.421c.256 0 .341.095.341.254 0 .189-.132.259-.302.264l.291.443zm-.453-.536c.136 0 .337.022.337-.173 0-.151-.123-.169-.241-.169h-.275v.341h.179zM13.161 14.094a.862.862 0 1 1 1.724.006.862.862 0 0 1-1.724-.006m1.587 0c0-.418-.305-.746-.723-.746-.421 0-.728.328-.728.746 0 .423.307.751.728.751.419-.001.723-.329.723-.751m-.293.482h-.142l-.275-.443h-.216v.443h-.118v-.961h.421c.256 0 .341.095.341.254 0 .189-.132.259-.302.264l.291.443zm-.453-.536c.136 0 .336.022.336-.173 0-.151-.123-.169-.241-.169h-.275v.341h.18z" fill="#0093d0"></path><path d="M64.273 3c0 .809.696 1.008 1.383 1.174.694.156 1.382.261 1.382.886 0 .609-.583.869-1.139.869-.592 0-1.166-.192-1.208-.843h-.566c.018.965.887 1.322 1.643 1.322.922 0 1.835-.443 1.835-1.426 0-.469-.287-.86-.739-1.017-1.182-.417-2.026-.357-2.026-.999 0-.513.496-.705.982-.705.539 0 1.026.183 1.078.731h.565c-.069-.921-.764-1.208-1.591-1.208-.764-.001-1.599.312-1.599 1.216m-1.73.6c-.635.034-1.391-.052-1.974.2-.522.217-.878.669-.878 1.261 0 .852.643 1.348 1.452 1.348.592 0 1.174-.348 1.365-.713l.026-.061h.018l.018.644h.539c-.018-.296-.052-.644-.044-.983V3.225c.018-.999-.582-1.443-1.548-1.443-.834 0-1.504.339-1.635 1.235h.557c.069-.592.521-.757 1.069-.757.617 0 .982.227 1.035.939V3.6zm-2.286 1.46c0-1.096 1.548-.956 2.287-.982.052.913-.165 1.852-1.304 1.852-.531-.001-.983-.279-.983-.87M55.579 3c0 .809.695 1.008 1.382 1.174.695.156 1.382.261 1.382.886 0 .609-.582.869-1.139.869-.591 0-1.165-.192-1.208-.843h-.565c.018.965.887 1.322 1.643 1.322.921 0 1.834-.443 1.834-1.426 0-.469-.287-.86-.738-1.017-1.182-.417-2.026-.357-2.026-.999 0-.513.495-.705.982-.705.539 0 1.026.183 1.078.731h.565c-.069-.922-.764-1.209-1.59-1.209-.765 0-1.6.313-1.6 1.217m-4.164.765c0-.783.391-1.505 1.252-1.505.713 0 1.147.444 1.147 1.2v2.817h.522v-2.73c0-.504-.113-1.764-1.539-1.764-.565 0-1.061.252-1.365.79l-.018-.017-.026-.643h-.539c.018.295.044.643.044.982v3.382h.522V3.765zm-2.4-.165c-.635.034-1.391-.052-1.974.2-.522.217-.878.669-.878 1.261 0 .852.644 1.348 1.452 1.348.591 0 1.173-.348 1.365-.713l.026-.061h.017l.018.644h.539c-.018-.296-.052-.644-.044-.983V3.225c.017-.999-.583-1.443-1.548-1.443-.835 0-1.504.339-1.635 1.235h.557c.07-.592.522-.757 1.07-.757.617 0 .982.227 1.035.939V3.6zm-2.286 1.46c0-1.096 1.548-.956 2.287-.982.052.913-.165 1.852-1.305 1.852-.53-.001-.982-.279-.982-.87M42.773 0h-.522v6.277h.522V3.912l2.295 2.365h.661l-2.382-2.478 2.208-1.886h-.669l-2.113 1.782V0zm-2.947 3.651c.017-.834.426-1.391 1.2-1.391.104 0 .217.027.322.035v-.504c-.175-.008-.348-.018-.522-.008-.435.017-.826.33-.983.774h-.017l-.026-.643h-.539c.017.295.052.643.044.982v3.382h.521V3.651zM33.47 6.277l.66-1.695h3.122l.669 1.695h.617L36.035 0h-.66l-2.487 6.277h.582zm.844-2.217L35.696.521l1.356 3.539h-2.738zM116.8 12.909c0-.444.095-1.48.957-1.48.583 0 .957.47.957 1.331 0 .217-.018.67-.209 1.035a.93.93 0 0 1-.818.496c-.644.001-.887-.652-.887-1.382m1.87-1.723c-.113-.156-.444-.599-1.236-.599-1.147 0-1.938.904-1.938 2.356 0 1.375.695 2.183 1.869 2.183.191 0 .531-.018.853-.226.269-.174.357-.339.444-.496l.034.634H120a7.472 7.472 0 0 1-.034-.712V8.76h-1.295v2.426zm-5.322 3.853h1.286V8.752h-1.286v6.287zm-3.758-2.678c.026-.514.261-.984.827-.984.748 0 .766.784.766.984h-1.593zm2.905.807c.018-.364.035-1.007-.261-1.608-.4-.817-1.147-1.06-1.774-1.06-.478 0-.896.139-1.235.365-.739.512-.913 1.366-.913 2.078 0 .704.166 1.296.565 1.714.461.477 1.174.547 1.548.547.644 0 1.217-.174 1.539-.512.357-.374.4-.748.417-.957h-1.173c-.121.487-.444.609-.765.609-.897 0-.897-.888-.897-1.175h2.949zm-6.4 1.871h1.286v-4.4h-1.286v4.4zm-.044-5.158h1.373V8.76h-1.373v1.121zm-5.235 5.158h1.295l-.009-2.688c0-.687.461-.896.827-.896.722 0 .722.705.722.957v2.626h1.278v-2.67c0-.574-.13-.974-.286-1.192-.209-.269-.626-.59-1.278-.59-.801 0-1.123.452-1.27.66V8.76h-1.278v6.279zM94.72 13.03c.009.609.026 2.156 2.434 2.156 1.74 0 2.678-.912 2.678-2.043 0-1.226-1.069-1.522-2.156-1.783-.905-.226-1.366-.331-1.366-.914 0-.513.409-.852 1.036-.852.931 0 1.001.74 1.018.957h1.295c0-.209 0-.713-.356-1.165-.47-.591-1.244-.739-1.896-.739-1.748 0-2.486.912-2.486 1.948 0 1.087.816 1.531 2.312 1.905.8.191 1.192.287 1.192.843 0 .531-.461.879-1.192.879-1.157 0-1.14-.896-1.14-1.192H94.72zm-3.498-.669c.026-.514.261-.984.827-.984.749 0 .766.784.766.984h-1.593zm2.905.807c.018-.364.035-1.007-.261-1.608-.4-.817-1.147-1.06-1.774-1.06-.479 0-.897.139-1.235.365-.738.512-.912 1.366-.912 2.078 0 .704.165 1.296.565 1.714.46.477 1.173.547 1.548.547.644 0 1.217-.174 1.539-.512.356-.374.4-.748.417-.957h-1.173c-.122.487-.444.609-.766.609-.896 0-.896-.888-.896-1.175h2.948zm-9.339-2.52v2.73c0 .217 0 .826.287 1.182.243.322.73.591 1.321.591.835 0 1.166-.504 1.296-.695l.044.582h1.252a3.91 3.91 0 0 1-.035-.322c0-.113-.008-.226-.026-1.173v-2.895h-1.321v2.218c0 .747 0 1.365-.827 1.365-.688 0-.688-.582-.688-.965v-2.617h-1.303zm-2.375 4.391h1.286V8.752h-1.286v6.287zm-4.488-2.748h.774c.644 0 1.454 0 1.454.896 0 .844-.696.844-1.315.844h-.913v-1.74zm0-2.566h.913c.444 0 1.105 0 1.105.783 0 .81-.696.81-1.079.81h-.939V9.725zm-1.286 5.314h2.348c.243 0 1.097 0 1.583-.252.486-.243.921-.739.921-1.478 0-.661-.374-1.357-1.33-1.53v-.019c.365-.095.669-.374.712-.426.322-.296.365-.705.365-.94 0-.365-.13-.974-.704-1.339-.478-.295-1.182-.295-1.547-.295h-2.348v6.279zm-7.106-1.269c.009.209.035.557.322.86.4.417.938.539 1.504.539 1.365 0 2.017-.755 2.017-1.513 0-.6-.374-1.009-1.173-1.226l-.792-.217c-.383-.105-.6-.165-.6-.461 0-.269.262-.434.609-.434.2 0 .592.034.627.522h1.173c-.035-.878-.765-1.295-1.67-1.295-1.139 0-1.921.521-1.921 1.373 0 .896.756 1.114 1.112 1.218l.801.217c.505.139.609.296.609.496 0 .261-.217.522-.678.522-.54 0-.714-.322-.731-.6h-1.209zm-4.348 0c.009.209.035.557.322.86.4.417.938.539 1.504.539 1.366 0 2.017-.755 2.017-1.513 0-.6-.374-1.009-1.173-1.226l-.791-.217c-.384-.105-.601-.165-.601-.461 0-.269.261-.434.609-.434.2 0 .592.034.626.522h1.173c-.034-.878-.764-1.295-1.669-1.295-1.14 0-1.922.521-1.922 1.373 0 .896.756 1.114 1.112 1.218l.8.217c.505.139.61.296.61.496 0 .261-.218.522-.679.522-.539 0-.714-.322-.731-.6h-1.207zm-3.88-.879c0-.4.009-1.488.949-1.488.853 0 .966.809.966 1.392 0 1.165-.382 1.505-.948 1.505-.636.001-.967-.426-.967-1.409m-1.321-.009c0 1.54.991 2.314 2.243 2.314 1.592 0 2.304-1.112 2.304-2.348 0-1.226-.686-2.304-2.278-2.304-1.73-.001-2.269 1.277-2.269 2.338m-2.965 2.157h1.286v-2.165c0-.548.078-1.217 1.383-1.096v-1.157c-1.044-.052-1.331.478-1.496.853l-.026-.843h-1.208c.026.252.061.887.061 1.095v3.313zm-.853-4.235c0-1.253-.964-2.087-2.339-2.087-1.766 0-2.878 1.321-2.878 3.314 0 1.557.704 3.156 2.87 3.156.574 0 1.278-.13 1.834-.704.504-.522.539-1.104.565-1.479h-1.416c-.026.835-.565 1.192-1.131 1.192-1.314 0-1.314-1.784-1.314-2.158 0-1.296.418-2.339 1.418-2.339.913 0 .991.887 1.018 1.105h1.373zm-8.706 1.557c.027-.514.262-.984.827-.984.749 0 .766.784.766.984H47.46zm2.905.807c.017-.364.035-1.007-.261-1.608-.4-.817-1.147-1.06-1.774-1.06-.479 0-.897.139-1.235.365-.738.512-.912 1.366-.912 2.078 0 .704.165 1.296.565 1.714.46.477 1.173.547 1.548.547.643 0 1.217-.174 1.539-.512.356-.374.4-.748.417-.957h-1.173c-.122.487-.444.609-.766.609-.896 0-.896-.888-.896-1.175h2.948zm-9.34-2.52v2.73c0 .217 0 .826.287 1.182.243.322.73.591 1.321.591.836 0 1.167-.504 1.297-.695l.043.582h1.252a3.91 3.91 0 0 1-.035-.322c0-.113-.008-.226-.026-1.173v-2.895h-1.32v2.218c0 .747 0 1.365-.827 1.365-.688 0-.688-.582-.688-.965v-2.617h-1.304zm-2.374 4.391h1.286V8.752h-1.286v6.287zm-4.489-2.748h.774c.644 0 1.454 0 1.454.896 0 .844-.696.844-1.314.844h-.914v-1.74zm0-2.566h.914c.444 0 1.105 0 1.105.783 0 .81-.696.81-1.079.81h-.94V9.725zm-1.286 5.314h2.348c.243 0 1.096 0 1.583-.252.486-.243.921-.739.921-1.478 0-.661-.373-1.357-1.33-1.53v-.019c.365-.095.669-.374.712-.426.322-.296.365-.705.365-.94 0-.365-.13-.974-.704-1.339-.477-.295-1.182-.295-1.547-.295h-2.348v6.279z" fill="#231f20"></path></svg>