<?xml version="1.0" encoding="UTF-8" standalone="no"?>
<!-- Created with Inkscape (http://www.inkscape.org/) -->

<svg
   width="42.468632mm"
   height="42.46862mm"
   viewBox="0 0 42.468633 42.468618"
   version="1.1"
   id="svg5"
   inkscape:version="1.1 (c68e22c387, 2021-05-23)"
   sodipodi:docname="nwasst-logo.svg"
   inkscape:export-filename="C:\Users\cyberpowerpc\Documents\GitHub\favicons\nwasst-192.png"
   inkscape:export-xdpi="115.00344"
   inkscape:export-ydpi="115.00344"
   xmlns:inkscape="http://www.inkscape.org/namespaces/inkscape"
   xmlns:sodipodi="http://sodipodi.sourceforge.net/DTD/sodipodi-0.dtd"
   xmlns="http://www.w3.org/2000/svg"
   xmlns:svg="http://www.w3.org/2000/svg">
  <sodipodi:namedview
     id="namedview7"
     pagecolor="#ffffff"
     bordercolor="#666666"
     borderopacity="1.0"
     inkscape:pageshadow="2"
     inkscape:pageopacity="0.0"
     inkscape:pagecheckerboard="0"
     inkscape:document-units="mm"
     showgrid="false"
     inkscape:snap-nodes="true"
     showguides="true"
     inkscape:guide-bbox="true"
     lock-margins="true"
     fit-margin-top="0.2"
     fit-margin-left="0.2"
     fit-margin-right="0.2"
     fit-margin-bottom="0.2"
     inkscape:zoom="2.8284271"
     inkscape:cx="51.088465"
     inkscape:cy="59.220193"
     inkscape:window-width="1680"
     inkscape:window-height="987"
     inkscape:window-x="-8"
     inkscape:window-y="-8"
     inkscape:window-maximized="1"
     inkscape:current-layer="layer1" />
  <defs
     id="defs2" />
  <g
     inkscape:label="Layer 1"
     inkscape:groupmode="layer"
     id="layer1"
     transform="translate(-79.688262,-88.040677)">
    <path
       style="fill:none;fill-opacity:0.506711;stroke:#000000;stroke-width:3.08031;stroke-linecap:round;stroke-miterlimit:4;stroke-dasharray:none;stroke-opacity:1"
       id="path39832"
       sodipodi:type="arc"
       sodipodi:cx="100.92258"
       sodipodi:cy="109.27499"
       sodipodi:rx="19.49416"
       sodipodi:ry="19.494154"
       sodipodi:start="3.1415927"
       sodipodi:end="3.1378926"
       sodipodi:open="true"
       sodipodi:arc-type="arc"
       d="M 81.428417,109.27499 A 19.49416,19.494154 0 0 1 100.90455,89.780841 19.49416,19.494154 0 0 1 120.4167,109.23892 19.49416,19.494154 0 0 1 100.97667,128.76907 19.49416,19.494154 0 0 1 81.428551,109.34712" />
    <path
       style="fill:#ffaa00;fill-opacity:1;stroke:#000000;stroke-width:0.00343964;stroke-linecap:butt;stroke-linejoin:miter;stroke-miterlimit:4;stroke-dasharray:none;stroke-opacity:1"
       d="m 91.593816,95.566961 1.027144,-0.266673 0.353593,2.131454 -1.027155,0.266676 z"
       id="path34788"
       sodipodi:nodetypes="ccccc" />
    <path
       style="fill:#ffaa00;fill-opacity:1;stroke:#000000;stroke-width:0.00343964;stroke-linecap:butt;stroke-linejoin:miter;stroke-miterlimit:4;stroke-dasharray:none;stroke-opacity:1"
       d="m 89.977348,102.69422 0.464332,0.95514 -2.82423,1.15888 -0.464335,-0.95513 z"
       id="path34903"
       sodipodi:nodetypes="ccccc" />
    <path
       style="fill:#ffaa00;fill-opacity:1;stroke:#000000;stroke-width:0.00343964;stroke-linecap:butt;stroke-linejoin:miter;stroke-miterlimit:4;stroke-dasharray:none;stroke-opacity:1"
       d="m 90.330499,99.589472 -0.285171,0.746358 -2.173961,-0.848445 0.288425,-0.755392 z"
       id="path34905"
       sodipodi:nodetypes="ccccc" />
    <path
       style="fill:#ffaa00;fill-opacity:1;stroke:#000000;stroke-width:0.00905751;stroke-linecap:round;stroke-miterlimit:4;stroke-dasharray:none;stroke-opacity:1"
       id="path33087"
       sodipodi:type="arc"
       sodipodi:cx="16.585159"
       sodipodi:cy="137.82759"
       sodipodi:rx="3.6301894"
       sodipodi:ry="3.5017247"
       sodipodi:start="2.5857844"
       sodipodi:end="0.44378976"
       sodipodi:open="true"
       sodipodi:arc-type="arc"
       transform="matrix(0.78911801,-0.61424162,0.58670577,0.80980019,0,0)"
       d="m 13.501407,139.67521 a 3.6301894,3.5017247 0 0 1 0.619365,-4.41883 3.6301894,3.5017247 0 0 1 4.615364,-0.24961 3.6301894,3.5017247 0 0 1 1.12756,4.32434" />
    <g
       id="g8624"
       transform="matrix(4.8325718,0,0,4.8325751,-340.5805,-333.77802)"
       style="stroke-width:0.206927;fill:currentColor;fill-opacity:1">
      <path
         style="fill:currentColor;fill-opacity:1;stroke:#000000;stroke-width:0.00547499;stroke-linecap:butt;stroke-linejoin:miter;stroke-miterlimit:4;stroke-dasharray:none;stroke-opacity:1"
         d="m 89.484142,92.059233 1.971097,-1.985956 1.98586,1.983972 -0.009,2.385439 -1.55676,-0.0066 v -1.686844 l -0.830277,0.01238 -0.0072,1.682544 -1.554246,-0.0024 z"
         id="path28142"
         sodipodi:nodetypes="cccccccccc" />
      <path
         id="path7506"
         style="fill:currentColor;fill-opacity:1;stroke:#000000;stroke-width:0.00269012;stroke-linecap:butt;stroke-linejoin:miter;stroke-miterlimit:4;stroke-dasharray:none;stroke-opacity:1"
         d="m 91.459981,88.714548 -0.0023,0.0022 -0.193271,0.193726 -2.601335,2.607103 0.414462,0.413763 c 0.747952,-0.75072 1.879527,-1.883921 2.383026,-2.388148 l 2.38753,2.384364 0.413562,-0.414484 c -0.464001,-0.462738 -0.95875,-0.95721 -1.476108,-1.474121 l 7.2e-4,-1.286522 h -0.58576 v 0.7021 c -0.08976,-0.08971 -0.257363,-0.257013 -0.326202,-0.325821 l 3.59e-4,-3.59e-4 -0.0023,-0.0023 z" />
    </g>
    <path
       style="fill:#ffaa00;fill-opacity:1;stroke:#000000;stroke-width:0.00343964;stroke-linecap:butt;stroke-linejoin:miter;stroke-miterlimit:4;stroke-dasharray:none;stroke-opacity:1"
       d="m 96.464435,97.801179 -0.695658,-0.393006 1.162292,-2.023628 0.704098,0.397545 z"
       id="path9661"
       sodipodi:nodetypes="ccccc" />
  </g>
</svg>
