<?xml version="1.0" encoding="UTF-8" standalone="no"?>
<!-- Created with Inkscape (http://www.inkscape.org/) -->

<svg
   width="183"
   height="183"
   viewBox="0 0 48.41875 48.418748"
   version="1.1"
   id="svg5"
   xml:space="preserve"
   inkscape:version="1.2 (dc2aedaf03, 2022-05-15)"
   sodipodi:docname="nwasst-logo-with-name-revised.svg"
   inkscape:export-filename="nwasst-logo-with-name-new.png"
   inkscape:export-xdpi="42.110001"
   inkscape:export-ydpi="42.110001"
   xmlns:inkscape="http://www.inkscape.org/namespaces/inkscape"
   xmlns:sodipodi="http://sodipodi.sourceforge.net/DTD/sodipodi-0.dtd"
   xmlns:xlink="http://www.w3.org/1999/xlink"
   xmlns="http://www.w3.org/2000/svg"
   xmlns:svg="http://www.w3.org/2000/svg"><sodipodi:namedview
     id="namedview7"
     pagecolor="#ffffff"
     bordercolor="#666666"
     borderopacity="1.0"
     inkscape:showpageshadow="2"
     inkscape:pageopacity="0.0"
     inkscape:pagecheckerboard="0"
     inkscape:deskcolor="#d1d1d1"
     inkscape:document-units="mm"
     showgrid="false"
     inkscape:zoom="2.3786088"
     inkscape:cx="201.37822"
     inkscape:cy="63.482486"
     inkscape:window-width="1680"
     inkscape:window-height="987"
     inkscape:window-x="-8"
     inkscape:window-y="-8"
     inkscape:window-maximized="1"
     inkscape:current-layer="layer1"
     showguides="true"><sodipodi:guide
       position="24.44007,-49.484249"
       orientation="0,-1"
       id="guide13002"
       inkscape:locked="false" /></sodipodi:namedview><defs
     id="defs2" /><g
     inkscape:label="Layer 1"
     inkscape:groupmode="layer"
     id="layer1"
     transform="translate(-47.500282,-45.142456)"><ellipse
       style="fill:#b5b899;fill-opacity:0;stroke:#000000;stroke-width:0.765004;stroke-linecap:round;stroke-dasharray:none;stroke-opacity:1"
       id="path12393"
       cx="-28.904963"
       cy="-95.480125"
       transform="rotate(150.88518)"
       rx="17.619457"
       ry="17.619493" /><g
       id="g16833"
       transform="translate(1.1781898,0.76988045)"><path
         style="fill:#ffbb00;fill-opacity:1;stroke:#154e73;stroke-width:0.00343964;stroke-linecap:butt;stroke-linejoin:miter;stroke-miterlimit:4;stroke-dasharray:none;stroke-opacity:0.109533"
         d="m 63.825448,57.992685 0.824489,-0.212001 0.283836,1.694394 -0.824496,0.212 z"
         id="path34788"
         sodipodi:nodetypes="ccccc" /><path
         style="fill:#ffbb00;fill-opacity:1;stroke:#154e73;stroke-width:0.00343964;stroke-linecap:butt;stroke-linejoin:miter;stroke-miterlimit:4;stroke-dasharray:none;stroke-opacity:0.109533"
         d="m 62.527907,63.658488 0.372718,0.759283 -2.267,0.921253 -0.372737,-0.759283 z"
         id="path34903"
         sodipodi:nodetypes="ccccc" /><path
         style="fill:#ffbb00;fill-opacity:1;stroke:#154e73;stroke-width:0.00343964;stroke-linecap:butt;stroke-linejoin:miter;stroke-miterlimit:4;stroke-dasharray:none;stroke-opacity:0.109533"
         d="m 62.811385,61.190369 -0.228924,0.593315 -1.74503,-0.674464 0.231479,-0.600504 z"
         id="path34905"
         sodipodi:nodetypes="ccccc" /><path
         style="fill:#ffbb00;fill-opacity:1;stroke:#154e73;stroke-width:0.00905623;stroke-linecap:round;stroke-miterlimit:4;stroke-dasharray:none;stroke-opacity:0.109533"
         id="path33087"
         sodipodi:type="arc"
         sodipodi:cx="16.054241"
         sodipodi:cy="89.769569"
         sodipodi:rx="2.903367"
         sodipodi:ry="2.7930627"
         sodipodi:start="2.5857844"
         sodipodi:end="0.44378976"
         sodipodi:open="true"
         sodipodi:arc-type="arc"
         transform="matrix(0.79199469,-0.61052797,0.59043832,0.80708276,0,0)"
         d="m 13.587906,91.243273 a 2.903367,2.7930627 0 0 1 0.495358,-3.524562 2.903367,2.7930627 0 0 1 3.691293,-0.1991 2.903367,2.7930627 0 0 1 0.901805,3.449202" /><path
         style="fill:#000000;fill-opacity:1;stroke:#000000;stroke-width:0.0264582;stroke-linecap:butt;stroke-linejoin:miter;stroke-miterlimit:4;stroke-dasharray:none;stroke-opacity:0"
         d="m 62.857715,70.423365 7.646086,-7.629344 7.703354,7.621722 -0.03491,9.164016 -6.038831,-0.02535 v -6.48026 l -3.220729,0.04756 -0.02793,6.463742 -6.029078,-0.0092 z"
         id="path28142"
         sodipodi:nodetypes="cccccccccc" /><path
         id="path7506"
         style="fill:#000000;fill-opacity:0.997972;stroke:#fbff39;stroke-width:0.0130001;stroke-linecap:butt;stroke-linejoin:miter;stroke-miterlimit:4;stroke-dasharray:none;stroke-opacity:1"
         d="m 70.522196,57.574263 -0.0089,0.0085 -0.749718,0.744227 -10.090843,10.015571 1.60774,1.589532 c 2.901382,-2.884002 7.290877,-7.237361 9.244001,-9.174423 l 9.261472,9.159886 1.604249,-1.592301 C 79.59029,66.547578 77.671108,64.647991 75.664224,62.662201 l 0.0028,-4.942364 h -2.272223 v 2.697221 c -0.348188,-0.344635 -0.998337,-0.987354 -1.265371,-1.25169 l 0.0014,-0.0014 -0.0089,-0.0088 z" /><path
         style="fill:#ffbb00;fill-opacity:1;stroke:#154e73;stroke-width:0.00343964;stroke-linecap:butt;stroke-linejoin:miter;stroke-miterlimit:4;stroke-dasharray:none;stroke-opacity:0.109533"
         d="m 67.735077,59.768774 -0.558403,-0.312413 0.932972,-1.608681 0.565195,0.316044 z"
         id="path9661"
         sodipodi:nodetypes="ccccc" /></g><text
       xml:space="preserve"
       style="font-style:normal;font-weight:normal;font-size:5.29167px;line-height:1.25;font-family:sans-serif;letter-spacing:0.132292px;fill:#b5b899;fill-opacity:0.43610558;stroke:#154e73;stroke-width:0.264583;stroke-opacity:0.10953346;-inkscape-font-specification:'sans-serif, Normal';font-stretch:normal;font-variant:normal;font-variant-ligatures:normal;font-variant-caps:normal;font-variant-numeric:normal;font-variant-east-asian:normal"
       id="text13028"
       transform="translate(0.28346453,0.69951896)"><textPath
         xlink:href="#path12393"
         id="textPath13030"></textPath></text><g
       aria-label="NWA SECOND STAGE TRANSITION"
       id="text16085"
       style="font-weight:bold;font-size:5.29167px;line-height:1.25;font-family:Alef;-inkscape-font-specification:'Alef, Bold';letter-spacing:0.079375px;stroke-width:0.264583"
       transform="translate(0.6739885)"><path
         d="m 49.437115,76.420715 3.059007,-1.350811 0.290265,0.657325 -1.695947,2.34787 2.286809,-1.00982 0.262084,0.593507 -3.059007,1.350811 -0.290265,-0.657325 1.695948,-2.34787 -2.28681,1.00982 z"
         style="font-size:4.7625px"
         id="path16839" /><path
         d="m 48.136303,71.215978 3.348644,-0.314153 0.175071,0.83291 -2.46329,1.304304 2.779949,0.202217 0.175071,0.832911 -3.19175,1.060586 -0.131064,-0.623545 2.399049,-0.784659 -9.57e-4,-0.0046 -2.603777,-0.189345 -0.150198,-0.714574 2.307209,-1.221595 -9.57e-4,-0.0046 -2.511936,0.247592 z"
         style="font-size:4.7625px"
         id="path16841" /><path
         d="m 48.056218,68.271094 3.33742,-1.279957 0.0034,0.655765 -1.025862,0.386672 0.0057,1.102244 1.029799,0.376062 0.0034,0.655765 -3.350455,-1.245437 z m 0.692327,0.321992 1.16001,0.373064 -0.0039,-0.758083 z"
         style="font-size:4.7625px"
         id="path16843" /><path
         d="m 51.118011,64.869887 q 0.116695,-0.170802 0.216621,-0.371835 0.0982,-0.20383 0.157391,-0.455074 0.0384,-0.16297 0.04097,-0.30571 0.0026,-0.142741 -0.03787,-0.255002 -0.03991,-0.114525 -0.124442,-0.19178 -0.08626,-0.08005 -0.224331,-0.112582 -0.149388,-0.0352 -0.252063,0.0051 -0.10214,0.03805 -0.184325,0.133365 -0.08219,0.09531 -0.156928,0.240164 -0.07474,0.144849 -0.166539,0.321517 -0.10392,0.197703 -0.215151,0.355458 -0.110698,0.155491 -0.250405,0.251586 -0.139708,0.0961 -0.318676,0.125602 -0.178969,0.02951 -0.418896,-0.02702 -0.160705,-0.03786 -0.275194,-0.119788 -0.113954,-0.08419 -0.185424,-0.196591 -0.07373,-0.112937 -0.111643,-0.246103 -0.03738,-0.135429 -0.04772,-0.274046 -0.0098,-0.14088 0.0041,-0.280954 0.01389,-0.140074 0.04269,-0.262301 0.02026,-0.08601 0.05758,-0.203842 0.03785,-0.120094 0.09475,-0.250035 0.05517,-0.132739 0.127776,-0.268534 0.07314,-0.138059 0.163991,-0.260001 l 0.355978,0.253499 q -0.108304,0.165611 -0.195443,0.352933 -0.08661,0.185059 -0.137269,0.400088 -0.032,0.135808 -0.03603,0.254314 -0.0063,0.117972 0.02151,0.21292 0.02833,0.09268 0.09463,0.156085 0.06629,0.0634 0.174938,0.089 0.140335,0.03306 0.232355,-0.0026 0.09255,-0.03792 0.166881,-0.130308 0.07433,-0.09239 0.145741,-0.233242 0.06968,-0.143653 0.164276,-0.322051 0.103386,-0.19544 0.219144,-0.352128 0.114028,-0.159484 0.261593,-0.258507 0.145835,-0.101819 0.334923,-0.133719 0.189089,-0.0319 0.440333,0.0273 0.22182,0.05226 0.36373,0.159761 0.14191,0.107498 0.223891,0.24627 0.07972,0.138238 0.108964,0.298032 0.02925,0.159794 0.028,0.317182 -0.0012,0.157388 -0.02526,0.299855 -0.02175,0.143002 -0.04681,0.249384 -0.0268,0.103586 -0.06904,0.232201 -0.04172,0.126351 -0.100211,0.263083 -0.0585,0.136731 -0.133902,0.274257 -0.07714,0.134729 -0.170248,0.256138 z"
         style="font-size:4.7625px"
         id="path16845" /><path
         d="m 50.092669,58.953859 0.442622,0.177039 -0.501755,1.254456 0.703877,0.281536 0.354942,-0.887403 0.442622,0.177039 -0.354942,0.887403 1.073088,0.429213 0.519892,-1.299797 0.442622,0.177039 -0.760838,1.902195 -3.104832,-1.241867 z"
         style="font-size:4.7625px"
         id="path16847" /><path
         d="m 54.697096,57.326801 q -0.04669,0.212608 -0.138645,0.44717 -0.08877,0.233736 -0.218345,0.454289 -0.220275,0.374939 -0.459624,0.584941 -0.240175,0.206819 -0.514035,0.264389 -0.275866,0.05639 -0.58895,-0.03045 -0.315089,-0.08802 -0.684014,-0.30476 -0.384964,-0.226165 -0.630455,-0.464786 -0.244313,-0.240627 -0.344089,-0.506918 -0.09977,-0.266291 -0.05148,-0.564262 0.04747,-0.301155 0.251252,-0.648024 0.07185,-0.122306 0.153383,-0.233535 0.08271,-0.113234 0.165187,-0.207721 0.08366,-0.09649 0.16391,-0.17341 0.08143,-0.07892 0.151905,-0.134612 l 0.325266,0.369097 q -0.135765,0.111731 -0.269273,0.251757 -0.134336,0.136843 -0.239173,0.31529 -0.12604,0.214538 -0.149046,0.400604 -0.02301,0.186066 0.05313,0.354863 0.07732,0.166792 0.252258,0.323509 0.174938,0.156716 0.441607,0.313383 0.284713,0.167267 0.517145,0.244485 0.230428,0.07604 0.422483,0.05672 0.190051,-0.0205 0.347269,-0.141205 0.156391,-0.123886 0.290677,-0.352459 0.10248,-0.174437 0.172881,-0.367721 0.07158,-0.195289 0.109798,-0.375115 z"
         style="font-size:4.7625px"
         id="path16849" /><path
         d="m 53.475048,53.559391 q 0.270848,-0.319139 0.554947,-0.456231 0.282326,-0.138597 0.571942,-0.127656 0.291121,0.0092 0.585182,0.155032 0.292287,0.144358 0.583058,0.391131 0.290771,0.246773 0.482512,0.5132 0.189967,0.264923 0.246353,0.550678 0.05789,0.283982 -0.03118,0.586593 -0.09084,0.301106 -0.36169,0.620245 -0.266334,0.31382 -0.546887,0.453922 -0.280553,0.140101 -0.569901,0.132438 -0.287844,-0.0094 -0.584914,-0.151754 -0.295565,-0.144091 -0.593428,-0.396882 -0.297863,-0.252792 -0.488099,-0.520992 -0.18873,-0.269973 -0.244848,-0.552451 -0.05461,-0.284251 0.038,-0.583852 0.09262,-0.299601 0.35895,-0.613421 z m 0.363464,0.308466 q -0.157995,0.186164 -0.204548,0.363207 -0.04505,0.17527 0.01081,0.353829 0.05559,0.175282 0.207581,0.359172 0.150215,0.182385 0.386023,0.382511 0.235808,0.200127 0.441966,0.320189 0.204384,0.118557 0.388146,0.146412 0.183493,0.02458 0.349104,-0.04837 0.167117,-0.07472 0.325112,-0.260887 0.15649,-0.184391 0.20331,-0.358157 0.04655,-0.177042 -0.009,-0.352324 -0.05409,-0.177054 -0.206075,-0.360944 -0.150483,-0.185663 -0.388065,-0.387294 -0.237581,-0.201632 -0.445243,-0.31992 -0.206157,-0.120062 -0.389651,-0.144639 -0.181988,-0.02635 -0.347332,0.04988 -0.165611,0.07295 -0.322101,0.257341 z"
         style="font-size:4.7625px"
         id="path16851" /><path
         d="m 57.720692,49.683902 2.095377,2.606071 -0.559997,0.450259 -2.706363,-1.031666 1.566433,1.948211 -0.505629,0.406544 -2.095377,-2.606072 0.559998,-0.450258 2.706362,1.031665 -1.566432,-1.94821 z"
         style="font-size:4.7625px"
         id="path16853" /><path
         d="m 59.796446,48.422793 q 0.241241,-0.130763 0.460088,-0.215002 0.21774,-0.08628 0.423824,-0.115993 0.243399,-0.03406 0.449082,0.01844 0.204574,0.05046 0.379436,0.177866 0.174863,0.127405 0.325975,0.32323 0.150004,0.19378 0.285201,0.443199 0.135196,0.249419 0.214754,0.484029 0.0816,0.233503 0.09197,0.452713 0.0093,0.217166 -0.0579,0.420211 -0.06623,0.199893 -0.222423,0.385073 -0.13627,0.158507 -0.325197,0.297945 -0.190036,0.137394 -0.431277,0.268158 l -0.797322,0.432184 -1.593542,-2.93987 z m 1.225475,2.602426 q 0.337328,-0.182847 0.523352,-0.347163 0.186023,-0.164315 0.241262,-0.350317 0.05524,-0.186003 -0.0084,-0.410735 -0.06473,-0.226777 -0.230957,-0.533439 -0.166224,-0.306663 -0.322018,-0.486725 -0.153749,-0.18117 -0.331574,-0.240841 -0.178933,-0.06172 -0.398812,-0.0087 -0.219879,0.05306 -0.514275,0.212633 l -0.183998,0.09974 1.143627,2.109837 z"
         style="font-size:4.7625px"
         id="path16855" /><path
         d="m 64.774842,49.215487 q 0.205698,0.0219 0.430081,0.01471 0.226027,-0.01004 0.475346,-0.07688 0.161721,-0.04336 0.28866,-0.108685 0.126939,-0.06533 0.206662,-0.154115 0.08197,-0.08939 0.109982,-0.200422 0.02966,-0.113883 -0.0071,-0.250897 -0.03974,-0.148244 -0.123873,-0.219584 -0.08188,-0.07194 -0.204752,-0.09919 -0.122868,-0.02725 -0.285841,-0.02449 -0.162973,0.0028 -0.362047,0.0056 -0.223341,0.0021 -0.41496,-0.02117 -0.189372,-0.02387 -0.340169,-0.101408 -0.150797,-0.07754 -0.261537,-0.221199 -0.11074,-0.143655 -0.174569,-0.381744 -0.04275,-0.159475 -0.02481,-0.299107 0.02019,-0.140235 0.08534,-0.256413 0.06455,-0.118424 0.163889,-0.214874 0.101581,-0.09705 0.218771,-0.171806 0.119436,-0.07536 0.249386,-0.129455 0.12995,-0.0541 0.251241,-0.08662 0.08535,-0.02288 0.206805,-0.04581 0.1237,-0.02353 0.265091,-0.03496 0.143035,-0.01427 0.297024,-0.01463 0.156234,-9.57e-4 0.306658,0.02131 l -0.0547,0.433579 q -0.197153,-0.01696 -0.403405,-0.005 -0.204005,0.01136 -0.417387,0.06856 -0.134767,0.03613 -0.241051,0.0887 -0.106887,0.05032 -0.177348,0.119773 -0.06821,0.06885 -0.09266,0.157258 -0.02445,0.08841 0.0045,0.196225 0.03733,0.13926 0.112317,0.203422 0.07723,0.06356 0.193798,0.08527 0.11657,0.02172 0.274448,0.01791 0.159523,-0.0067 0.361445,-0.0078 0.221095,-0.0015 0.413918,0.02626 0.194467,0.02491 0.351563,0.107984 0.158739,0.08023 0.27638,0.231664 0.11764,0.151436 0.184481,0.400756 0.05901,0.220119 0.03153,0.396015 -0.02748,0.175896 -0.11088,0.313818 -0.08401,0.135676 -0.210896,0.237106 -0.126891,0.101431 -0.266102,0.174866 -0.139212,0.07343 -0.276063,0.119753 -0.136248,0.04856 -0.241816,0.07687 -0.103924,0.02545 -0.23721,0.04915 -0.131039,0.02309 -0.279169,0.03632 -0.148129,0.01323 -0.304966,0.01194 -0.155193,-0.0041 -0.306219,-0.02865 z"
         style="font-size:4.7625px"
         id="path16857" /><path
         d="m 69.925347,45.477694 0.0496,0.474128 -0.971384,0.10162 0.298328,2.851705 -0.645276,0.0675 -0.298328,-2.851705 -0.980635,0.102588 -0.0496,-0.474128 z"
         style="font-size:4.7625px"
         id="path16859" /><path
         d="m 72.788005,45.556422 1.047544,3.417501 -0.654447,-0.04169 -0.315249,-1.050013 -1.100028,-0.07008 -0.445952,1.001516 -0.654447,-0.04169 1.472774,-3.25693 z m -0.368815,0.668558 -0.451912,1.131626 0.75656,0.0482 z"
         style="font-size:4.7625px"
         id="path16861" /><path
         d="m 77.011633,49.553802 q -0.111517,0.02551 -0.247947,0.03537 -0.13588,0.0076 -0.287086,-4.83e-4 -0.151205,-0.0081 -0.310407,-0.03249 -0.159753,-0.02214 -0.315655,-0.06009 -0.395403,-0.09626 -0.671589,-0.249657 -0.276185,-0.153398 -0.426552,-0.391046 -0.150368,-0.237649 -0.171616,-0.573105 -0.0207,-0.337716 0.09261,-0.803162 0.118263,-0.485782 0.300246,-0.790909 0.181984,-0.305126 0.420732,-0.460013 0.239299,-0.157145 0.529626,-0.179807 0.292586,-0.02211 0.626984,0.0593 0.142345,0.03465 0.283099,0.08567 0.143564,0.04931 0.278759,0.113337 0.135194,0.06403 0.255241,0.141119 0.122856,0.07538 0.224337,0.159922 l -0.281239,0.398238 q -0.201801,-0.164009 -0.413936,-0.265913 -0.209874,-0.101354 -0.408706,-0.149759 -0.225944,-0.05501 -0.408486,-0.02286 -0.179732,0.03044 -0.32168,0.15145 -0.141398,0.118752 -0.248371,0.332046 -0.104163,0.211584 -0.178421,0.516609 -0.07866,0.323101 -0.08335,0.568476 -0.0041,0.243115 0.06972,0.421451 0.07612,0.178886 0.230235,0.292992 0.156926,0.112398 0.400946,0.171804 0.12201,0.0297 0.25294,0.04243 0.133189,0.01328 0.271938,0.01355 l 0.190869,-0.784028 -0.517413,-0.125963 0.111661,-0.458668 1.134243,0.276128 z"
         style="font-size:4.7625px"
         id="path16863" /><path
         d="m 80.898295,47.696346 -0.184841,0.439422 -1.245384,-0.523867 -0.293942,0.698787 0.880986,0.370584 -0.184842,0.439421 -0.880985,-0.370584 -0.448128,1.065328 1.290398,0.542802 -0.184841,0.439421 -1.888439,-0.794366 1.296593,-3.082379 z"
         style="font-size:4.7625px"
         id="path16865" /><path
         d="m 85.472377,50.552681 -0.277616,0.387539 -0.793982,-0.568776 -1.669763,2.330903 -0.527431,-0.377829 1.669763,-2.330903 -0.801543,-0.574193 0.277617,-0.387539 z"
         style="font-size:4.7625px"
         id="path16867" /><path
         d="m 87.292106,52.240757 q 0.159985,0.159015 0.254247,0.334673 0.0959,0.174008 0.114534,0.353185 0.01863,0.179176 -0.04989,0.356974 -0.06687,0.179436 -0.230805,0.344369 -0.132785,0.133596 -0.287152,0.199839 -0.154367,0.06624 -0.31715,0.06838 -0.161144,4.9e-4 -0.322468,-0.05821 -0.161324,-0.05871 -0.311313,-0.174998 l -0.0066,0.0033 q 0.02827,0.103507 0.02209,0.235073 -0.0045,0.129917 -0.02714,0.268111 -0.02095,0.139832 -0.05178,0.276406 -0.02918,0.138214 -0.05514,0.253397 l -0.170149,0.824332 -0.519538,-0.516387 q 0.03735,-0.153038 0.08609,-0.347218 0.05203,-0.194191 0.100768,-0.388371 0.05039,-0.192541 0.08934,-0.360383 0.04224,-0.167851 0.06167,-0.266571 0.01616,-0.09213 0.02088,-0.162853 0.0064,-0.06908 -0.0037,-0.124959 -0.01004,-0.05588 -0.03813,-0.103477 -0.02645,-0.04596 -0.07099,-0.09351 l -0.01319,-0.01311 -1.045889,1.052271 -0.460163,-0.457372 2.35735,-2.371733 z m -1.173187,0.827384 q 0.107206,0.106556 0.206066,0.172029 0.102148,0.06546 0.197569,0.08162 0.09871,0.01614 0.19397,-0.02032 0.09526,-0.03646 0.190342,-0.132126 0.09508,-0.09566 0.130966,-0.191142 0.03589,-0.09548 0.0175,-0.192442 -0.01509,-0.09697 -0.08282,-0.197069 -0.06443,-0.100108 -0.17164,-0.206665 l -0.237503,-0.236062 -0.681959,0.68612 z"
         style="font-size:4.7625px"
         id="path16869" /><path
         d="m 89.900211,55.371254 -1.990188,2.969144 -0.380619,-0.534012 0.615645,-0.907133 -0.639764,-0.897595 -1.05835,0.286013 -0.380619,-0.534012 3.455976,-0.912629 z m -0.751376,0.135753 -1.163046,0.36349 0.440007,0.617333 z"
         style="font-size:4.7625px"
         id="path16871" /><path
         d="m 92.432436,60.02191 -3.028845,1.417151 -0.30452,-0.650844 1.644382,-2.38427 -2.264262,1.059414 -0.274954,-0.587655 3.028844,-1.41715 0.30452,0.650843 -1.644381,2.38427 2.264261,-1.059413 z"
         style="font-size:4.7625px"
         id="path16873" /><path
         d="m 90.247671,62.149607 q -0.02128,0.205762 -0.01342,0.430122 0.01072,0.225996 0.0783,0.475115 0.04384,0.16159 0.10955,0.288333 0.06571,0.126742 0.154733,0.206199 0.08963,0.0817 0.20075,0.109381 0.113972,0.02932 0.250875,-0.0078 0.148124,-0.04019 0.219212,-0.12453 0.0717,-0.0821 0.09858,-0.205048 0.02688,-0.12295 0.02363,-0.285914 -0.0033,-0.162964 -0.0067,-0.362028 -0.0028,-0.223334 0.01992,-0.415022 0.0233,-0.189443 0.100389,-0.340471 0.07709,-0.151028 0.220414,-0.262198 0.143323,-0.11117 0.38122,-0.175712 0.159346,-0.04323 0.299031,-0.02571 0.140295,0.01977 0.256667,0.08457 0.118617,0.0642 0.215365,0.163245 0.09736,0.10129 0.17246,0.218256 0.07571,0.119209 0.130202,0.248997 0.05449,0.129787 0.08737,0.250979 0.02314,0.08528 0.04643,0.206668 0.0239,0.123628 0.03575,0.264984 0.0147,0.142992 0.01551,0.296979 0.0014,0.156231 -0.02039,0.306721 l -0.433741,-0.0534 q 0.01637,-0.197203 0.0038,-0.403418 -0.01197,-0.20397 -0.06981,-0.417179 -0.03653,-0.134659 -0.08942,-0.240785 -0.05064,-0.106736 -0.120303,-0.176988 -0.06905,-0.06801 -0.157535,-0.09219 -0.08848,-0.02418 -0.196211,0.005 -0.139147,0.03775 -0.203084,0.112926 -0.06333,0.07742 -0.08469,0.194053 -0.02137,0.116634 -0.01709,0.2745 0.0071,0.159502 0.0089,0.36142 0.0022,0.22109 -0.02502,0.413995 -0.02432,0.19454 -0.10693,0.351884 -0.07975,0.158979 -0.230835,0.277073 -0.151083,0.118094 -0.400201,0.185681 -0.219942,0.05967 -0.395919,0.03272 -0.175978,-0.02695 -0.314149,-0.10994 -0.135927,-0.0836 -0.237737,-0.210184 -0.10181,-0.126586 -0.175662,-0.265577 -0.07385,-0.138991 -0.12058,-0.275702 -0.04897,-0.136103 -0.07759,-0.241586 -0.02577,-0.103847 -0.04986,-0.237061 -0.02349,-0.13097 -0.03716,-0.279059 -0.01367,-0.148089 -0.01285,-0.304929 0.0037,-0.155205 0.02774,-0.306304 z"
         style="font-size:4.7625px"
         id="path16875" /><path
         d="m 93.802601,65.479317 -3.309392,0.479725 -0.09308,-0.642086 3.309392,-0.479726 z"
         style="font-size:4.7625px"
         id="path16877" /><path
         d="m 94.015119,69.255497 -0.476606,0.01019 -0.02088,-0.976461 -2.866611,0.06129 -0.01387,-0.648649 2.866611,-0.06129 -0.02108,-0.985761 0.476606,-0.01019 z"
         style="font-size:4.7625px"
         id="path16879" /><path
         d="m 93.843508,71.070101 -3.327063,-0.335958 0.06518,-0.645515 3.327063,0.335958 z"
         style="font-size:4.7625px"
         id="path16881" /><path
         d="m 93.402486,73.836987 q -0.09793,0.406962 -0.289744,0.657391 -0.189552,0.250972 -0.453012,0.371744 -0.264005,0.123032 -0.592246,0.125366 -0.325981,0.0029 -0.696768,-0.08635 -0.370788,-0.08923 -0.662033,-0.240632 -0.288985,-0.150863 -0.468116,-0.380531 -0.179676,-0.227407 -0.236562,-0.537682 -0.05463,-0.309731 0.04331,-0.716693 0.0963,-0.400179 0.283589,-0.651695 0.187291,-0.251517 0.449035,-0.375093 0.2612,-0.121316 0.590529,-0.128172 0.328786,-0.0046 0.708617,0.08681 0.379831,0.0914 0.670532,0.245069 0.290157,0.155929 0.467572,0.382792 0.176871,0.229124 0.229235,0.53831 0.05236,0.309187 -0.04393,0.709366 z m -0.463485,-0.111532 q 0.05713,-0.237394 0.01888,-0.416416 -0.03879,-0.176761 -0.169133,-0.310976 -0.12863,-0.13141 -0.347187,-0.227056 -0.216297,-0.0951 -0.516997,-0.167462 -0.3007,-0.07236 -0.538844,-0.08661 -0.235883,-0.01371 -0.412474,0.04425 -0.174875,0.06077 -0.28983,0.200531 -0.115499,0.142026 -0.172625,0.379421 -0.05658,0.235133 -0.02006,0.41135 0.03824,0.179022 0.166873,0.310432 0.128085,0.13367 0.346643,0.229317 0.218014,0.09791 0.520974,0.170811 0.302961,0.0729 0.541649,0.0849 0.238144,0.01425 0.413019,-0.04651 0.174331,-0.05851 0.287568,-0.201076 0.114955,-0.139765 0.171537,-0.374899 z"
         style="font-size:4.7625px"
         id="path16883" /><path
         d="m 91.369287,79.206497 -3.048045,-1.375369 0.295542,-0.654969 2.880219,-0.305076 -2.278614,-1.028179 0.266848,-0.59138 3.048044,1.375369 -0.295541,0.65497 -2.880219,0.305075 2.278614,1.028179 z"
         style="font-size:4.7625px"
         id="path16885" /></g></g></svg>
