<?xml version="1.0" encoding="UTF-8" standalone="no"?>
<!-- Created with Inkscape (http://www.inkscape.org/) -->

<svg
   width="14mm"
   height="12.618944mm"
   viewBox="0 0 14 12.618944"
   version="1.1"
   id="svg5"
   xml:space="preserve"
   inkscape:version="1.2 (dc2aedaf03, 2022-05-15)"
   sodipodi:docname="nwasst-logo-with-name.svg"
   xmlns:inkscape="http://www.inkscape.org/namespaces/inkscape"
   xmlns:sodipodi="http://sodipodi.sourceforge.net/DTD/sodipodi-0.dtd"
   xmlns="http://www.w3.org/2000/svg"
   xmlns:svg="http://www.w3.org/2000/svg"><sodipodi:namedview
     id="namedview7"
     pagecolor="#ffffff"
     bordercolor="#666666"
     borderopacity="1.0"
     inkscape:showpageshadow="2"
     inkscape:pageopacity="0.0"
     inkscape:pagecheckerboard="0"
     inkscape:deskcolor="#d1d1d1"
     inkscape:document-units="mm"
     showgrid="false"
     inkscape:zoom="4.7572176"
     inkscape:cx="1.4714484"
     inkscape:cy="61.590624"
     inkscape:window-width="1680"
     inkscape:window-height="987"
     inkscape:window-x="-8"
     inkscape:window-y="-8"
     inkscape:window-maximized="1"
     inkscape:current-layer="layer1" /><defs
     id="defs2" /><g
     inkscape:label="Layer 1"
     inkscape:groupmode="layer"
     id="layer1"
     transform="translate(-51.018213,-48.187934)"><path
       style="fill:none;fill-opacity:0.506711;stroke:#000000;stroke-width:0.396875;stroke-linecap:round;stroke-miterlimit:4;stroke-dasharray:none;stroke-opacity:1"
       id="path39832"
       sodipodi:type="arc"
       sodipodi:cx="-13.087042"
       sodipodi:cy="78.979919"
       sodipodi:rx="4.874373"
       sodipodi:ry="4.8743706"
       sodipodi:start="3.1415927"
       sodipodi:end="3.1378926"
       sodipodi:open="true"
       sodipodi:arc-type="arc"
       d="m -17.961415,78.979919 a 4.874373,4.8743706 0 0 1 4.869864,-4.874368 4.874373,4.8743706 0 0 1 4.8788738,4.865351 4.874373,4.8743706 0 0 1 -4.8608378,4.883369 4.874373,4.8743706 0 0 1 -4.887866,-4.856316"
       transform="rotate(-55.878573)" /><path
       style="fill:#ffaa00;fill-opacity:1;stroke:#000000;stroke-width:0.00343964;stroke-linecap:butt;stroke-linejoin:miter;stroke-miterlimit:4;stroke-dasharray:none;stroke-opacity:1"
       d="m 55.820888,51.924346 0.242675,-0.06301 0.08354,0.503576 -0.242674,0.06301 z"
       id="path34788"
       sodipodi:nodetypes="ccccc" /><path
       style="fill:#ffaa00;fill-opacity:1;stroke:#000000;stroke-width:0.00343964;stroke-linecap:butt;stroke-linejoin:miter;stroke-miterlimit:4;stroke-dasharray:none;stroke-opacity:1"
       d="m 55.438982,53.60823 0.109703,0.225661 -0.667251,0.273797 -0.109709,-0.225659 z"
       id="path34903"
       sodipodi:nodetypes="ccccc" /><path
       style="fill:#ffaa00;fill-opacity:1;stroke:#000000;stroke-width:0.00343964;stroke-linecap:butt;stroke-linejoin:miter;stroke-miterlimit:4;stroke-dasharray:none;stroke-opacity:1"
       d="m 55.522418,52.874703 -0.06738,0.176334 -0.513616,-0.200452 0.06813,-0.17847 z"
       id="path34905"
       sodipodi:nodetypes="ccccc" /><path
       style="fill:#ffaa00;fill-opacity:1;stroke:#000000;stroke-width:0.00905745;stroke-linecap:round;stroke-miterlimit:4;stroke-dasharray:none;stroke-opacity:1"
       id="path33087"
       sodipodi:type="arc"
       sodipodi:cx="14.387055"
       sodipodi:cy="76.741913"
       sodipodi:rx="0.8576681"
       sodipodi:ry="0.82731694"
       sodipodi:start="2.5857844"
       sodipodi:end="0.44378976"
       sodipodi:open="true"
       sodipodi:arc-type="arc"
       transform="matrix(0.78911801,-0.61424162,0.58670577,0.80980018,0,0)"
       d="m 13.658488,77.17843 a 0.8576681,0.82731694 0 0 1 0.146332,-1.04399 0.8576681,0.82731694 0 0 1 1.090425,-0.05897 0.8576681,0.82731694 0 0 1 0.266397,1.021668" /><g
       id="g8624"
       transform="matrix(1.1417427,0,0,1.1417435,-46.284552,-49.512639)"
       style="fill:currentColor;fill-opacity:1;stroke-width:0.875845"><path
         style="fill:currentColor;fill-opacity:1;stroke:#000000;stroke-width:0.0231735;stroke-linecap:butt;stroke-linejoin:miter;stroke-miterlimit:4;stroke-dasharray:none;stroke-opacity:1"
         d="m 89.484142,92.059233 1.971097,-1.985956 1.98586,1.983972 -0.009,2.385439 -1.55676,-0.0066 v -1.686844 l -0.830277,0.01238 -0.0072,1.682544 -1.554246,-0.0024 z"
         id="path28142"
         sodipodi:nodetypes="cccccccccc" /><path
         id="path7506"
         style="fill:currentColor;fill-opacity:1;stroke:#000000;stroke-width:0.0113862;stroke-linecap:butt;stroke-linejoin:miter;stroke-miterlimit:4;stroke-dasharray:none;stroke-opacity:1"
         d="m 91.459981,88.714548 -0.0023,0.0022 -0.193271,0.193726 -2.601335,2.607103 0.414462,0.413763 c 0.747952,-0.75072 1.879527,-1.883921 2.383026,-2.388148 l 2.38753,2.384364 0.413562,-0.414484 c -0.464001,-0.462738 -0.95875,-0.95721 -1.476108,-1.474121 l 7.2e-4,-1.286522 h -0.58576 v 0.7021 c -0.08976,-0.08971 -0.257363,-0.257013 -0.326202,-0.325821 l 3.59e-4,-3.59e-4 -0.0023,-0.0023 z" /></g><path
       style="fill:#ffaa00;fill-opacity:1;stroke:#000000;stroke-width:0.00343964;stroke-linecap:butt;stroke-linejoin:miter;stroke-miterlimit:4;stroke-dasharray:none;stroke-opacity:1"
       d="m 56.971617,52.452202 -0.164356,-0.09285 0.274604,-0.478102 0.166355,0.09393 z"
       id="path9661"
       sodipodi:nodetypes="ccccc" /><g
       aria-label="NWA SECOND STAGE TRANSITION"
       transform="matrix(0.17223315,-3.1205201e-4,3.1205201e-4,0.17223315,38.495106,46.238346)"
       id="text266"
       style="font-size:10.5833px;line-height:1.25;-inkscape-font-specification:'sans-serif, Normal';stroke-width:1.53619"><path
         d="m 89.251243,75.114522 0.838099,0.729698 -1.071977,7.387973 0.03193,0.0278 q 0.227269,-0.293265 0.564698,-0.729172 0.337429,-0.435907 0.719652,-0.874911 l 2.772854,-3.184774 0.662497,0.57681 -4.96195,5.699069 -0.830116,-0.722749 1.06606,-7.36506 -0.03193,-0.0278 q -0.10321,0.13466 -0.309631,0.403979 -0.214402,0.26237 -0.45557,0.571599 -0.2561,0.310262 -0.485433,0.573664 l -2.800652,3.216701 -0.670479,-0.583758 z"
         id="path329"
         style="stroke-width:1.53619" /><path
         d="m 76.699226,70.589623 7.400726,-2.524482 0.534872,0.800897 -3.301898,3.974116 q -0.19353,0.243786 -0.401739,0.484648 -0.222888,0.237939 -0.381246,0.420055 -0.173035,0.179192 -0.246367,0.240893 0.120291,-0.06761 0.557514,-0.23234 0.428422,-0.158853 0.909681,-0.314814 l 4.885987,-1.544991 0.534871,0.800897 -5.173074,5.860086 -0.552504,-0.8273 3.184839,-3.5396 q 0.334316,-0.375987 0.66574,-0.699137 0.325547,-0.331951 0.630599,-0.59931 -0.37263,0.185226 -0.836257,0.36759 -0.463626,0.182364 -0.927283,0.326569 l -4.533851,1.424358 -0.546627,-0.818499 3.049683,-3.703865 q 0.322561,-0.39359 0.668633,-0.751975 0.346072,-0.358385 0.61592,-0.602233 -0.349151,0.182271 -0.780496,0.355803 -0.446024,0.170609 -0.930206,0.341248 l -4.475012,1.588686 z"
         id="path331"
         style="stroke-width:1.53619" /><path
         d="m 81.329477,61.088837 -1.896047,1.644354 1.008177,2.820292 2.505228,0.05978 0.324184,0.906879 -8.139331,-0.226144 -0.288559,-0.807222 6.155039,-5.324748 z m -2.597116,2.198425 -1.867593,1.566747 q -0.06904,0.0584 -0.253381,0.202969 -0.184342,0.144571 -0.37865,0.292705 -0.207837,0.141731 -0.313175,0.224344 0.337436,-0.03071 0.668469,-0.04789 0.317505,-0.02359 0.508297,-0.02435 l 2.441149,0.03773 z"
         id="path333"
         style="stroke-width:1.53619" /><path
         d="m 78.092999,52.25992 q 1.002883,-0.07129 1.614164,0.617348 0.611282,0.688638 0.699081,1.923767 0.04502,0.6334 -0.01171,1.178543 -0.05674,0.545144 -0.200132,0.916077 l -0.907872,0.06454 q 0.141891,-0.392047 0.239356,-0.961305 0.09671,-0.579815 0.05394,-1.181545 -0.05928,-0.833976 -0.417307,-1.243536 -0.358023,-0.409561 -0.917526,-0.369789 -0.369484,0.02626 -0.611587,0.202625 -0.242104,0.17636 -0.425472,0.581965 -0.183367,0.405605 -0.388701,1.099241 -0.279331,0.995977 -0.751532,1.517603 -0.4722,0.521626 -1.348403,0.583911 -0.591173,0.04202 -1.045758,-0.233353 -0.454586,-0.275376 -0.725103,-0.797256 -0.270518,-0.521881 -0.321547,-1.239734 -0.04352,-0.612286 0.03583,-1.137817 0.07935,-0.525531 0.238606,-0.971862 l 0.833874,0.237805 q -0.141141,0.402603 -0.224246,0.87535 -0.0831,0.472748 -0.04858,0.958355 0.05028,0.707296 0.381935,1.04446 0.321101,0.337915 0.817264,0.302645 0.380039,-0.02701 0.622143,-0.203374 0.242104,-0.17636 0.427723,-0.550295 0.175062,-0.373185 0.353228,-1.00123 0.195527,-0.682329 0.448289,-1.156527 0.241455,-0.484004 0.615542,-0.744016 0.373337,-0.270568 0.96451,-0.312592 z"
         id="path335"
         style="stroke-width:1.53619" /><path
         d="m 80.625265,46.385233 -0.446565,4.199057 -7.514103,-0.799115 0.446565,-4.199058 0.831392,0.08842 -0.345835,3.251901 2.346841,0.249584 0.32569,-3.06247 0.820869,0.0873 -0.32569,3.062471 2.683608,0.285398 0.345836,-3.251902 z"
         id="path337"
         style="stroke-width:1.53619" /><path
         d="m 75.372009,39.668679 q -0.352938,1.164782 0.224404,2.069581 0.577341,0.904799 1.934565,1.316048 1.347096,0.408181 2.324333,0.02972 0.970177,-0.391654 1.347667,-1.637464 0.141176,-0.465913 0.189047,-0.915864 0.04787,-0.449951 0.05216,-0.902049 l 0.790026,0.239384 q 0.02917,0.451177 -0.0319,0.908187 -0.058,0.446882 -0.239072,1.044466 -0.334524,1.104011 -1.014348,1.705288 -0.679823,0.601277 -1.634046,0.721304 -0.951153,0.109898 -2.08555,-0.233833 -1.093882,-0.331455 -1.80473,-0.978129 -0.717908,-0.659871 -0.947505,-1.580943 -0.239727,-0.924142 0.09787,-2.038281 0.3468,-1.144525 1.029997,-1.866423 l 0.659284,0.597873 q -0.253206,0.288206 -0.500579,0.666648 -0.244304,0.368313 -0.391617,0.854483 z"
         id="path339"
         style="stroke-width:1.53619" /><path
         d="m 82.949649,30.96868 q 1.020731,0.581496 1.58491,1.365747 0.560221,0.769817 0.595563,1.691285 0.04058,0.912272 -0.519961,1.896219 -0.581496,1.020731 -1.392165,1.460238 -0.805431,0.430311 -1.757273,0.326547 -0.951843,-0.103764 -1.972573,-0.68526 -1.00234,-0.571018 -1.5678,-1.33164 -0.574656,-0.76586 -0.615236,-1.678131 -0.03534,-0.921468 0.551393,-1.951394 0.560541,-0.983948 1.365971,-1.414259 0.796235,-0.43555 1.753316,-0.340982 0.953124,0.08013 1.973855,0.66163 z m -2.954627,5.186416 q 1.241429,0.707225 2.257306,0.591684 1.00668,-0.120779 1.640563,-1.233467 0.633883,-1.112689 0.219175,-2.031032 -0.418664,-0.932778 -1.660093,-1.640002 -1.24143,-0.707225 -2.233676,-0.590403 -1.001442,0.111583 -1.635324,1.224272 -0.639122,1.121884 -0.229653,2.049423 0.400273,0.922301 1.641702,1.629525 z"
         id="path341"
         style="stroke-width:1.53619" /><path
         d="m 91.44444,27.185825 -0.768047,0.803102 -7.329841,-1.415875 -0.02926,0.03059 q 0.28233,0.240719 0.702001,0.598139 0.41967,0.35742 0.840343,0.75973 l 3.051787,2.918579 -0.607123,0.634833 -5.461093,-5.222719 0.760733,-0.795454 7.307229,1.408895 0.02926,-0.0306 Q 89.810737,26.765667 89.551352,26.546893 89.299283,26.32047 89.001656,26.065122 88.703694,25.794811 88.451291,25.553425 l -3.082382,-2.947837 0.614438,-0.642482 z"
         id="path343"
         style="stroke-width:1.53619" /><path
         d="m 96.094223,19.379448 q 1.029746,1.615258 0.669669,2.999505 -0.356842,1.369633 -1.92748,2.370933 l -1.775891,1.132152 -4.062093,-6.371791 1.963297,-1.251626 q 0.954876,-0.608745 1.887447,-0.701229 0.941494,-0.09817 1.768988,0.353269 0.827493,0.451442 1.476063,1.468787 z m -0.83072,0.567247 q -0.813557,-1.276143 -1.822654,-1.461199 -1.005862,-0.199669 -2.157068,0.534239 l -1.044117,0.665637 3.185955,4.997484 0.865636,-0.551853 q 2.587982,-1.64987 0.972248,-4.184308 z"
         id="path345"
         style="stroke-width:1.53619" /><path
         d="m 105.86017,17.856128 q 0.27706,0.966485 -0.27034,1.706917 -0.5474,0.740432 -1.7377,1.081658 -0.61041,0.174987 -1.15551,0.232165 -0.5451,0.05718 -0.93766,-0.0064 l -0.25082,-0.874923 q 0.41291,0.05778 0.99002,0.03547 0.58729,-0.02523 1.16718,-0.191471 0.80371,-0.2304 1.13041,-0.665354 0.32671,-0.434954 0.17213,-0.97415 -0.10207,-0.356073 -0.32467,-0.556491 -0.2226,-0.200418 -0.65735,-0.295979 -0.43475,-0.09556 -1.15585,-0.153073 -1.0322,-0.06741 -1.64018,-0.421584 -0.60797,-0.354172 -0.85003,-1.198574 -0.16333,-0.569717 0.0121,-1.071409 0.17546,-0.501691 0.63015,-0.874248 0.45468,-0.372557 1.14648,-0.570876 0.59007,-0.169154 1.12065,-0.200152 0.53058,-0.031 1.00019,0.03255 l -0.0603,0.865022 q -0.42308,-0.05487 -0.9028,-0.03845 -0.47971,0.01642 -0.94769,0.150572 -0.68163,0.195403 -0.94295,0.589594 -0.26424,0.384019 -0.12717,0.862174 0.10499,0.366247 0.32759,0.566664 0.2226,0.200418 0.62683,0.304729 0.40131,0.09414 1.05262,0.138627 0.70801,0.05025 1.22422,0.199531 0.52346,0.136187 0.85519,0.448446 0.3419,0.309341 0.50522,0.879058 z"
         id="path347"
         style="stroke-width:1.53619" /><path
         d="m 110.3091,19.297048 -0.94629,0.10858 -0.76609,-6.676587 -2.34469,0.269037 -0.0953,-0.830631 5.62516,-0.645448 0.0953,0.830631 -2.33418,0.267831 z"
         id="path349"
         style="stroke-width:1.53619" /><path
         d="m 117.79322,19.396909 -0.7625,-2.391128 -2.98924,-0.186821 -1.04372,2.278242 -0.96121,-0.06007 3.42032,-7.389268 0.85558,0.05347 2.4631,7.756971 z m -0.99488,-3.253967 -0.70242,-2.334353 q -0.0264,-0.08648 -0.0865,-0.312919 -0.0601,-0.226438 -0.11949,-0.463438 -0.0482,-0.246903 -0.0825,-0.376296 -0.10497,0.322163 -0.21983,0.633102 -0.10365,0.301037 -0.17825,0.476642 l -0.99817,2.228069 z"
         id="path351"
         style="stroke-width:1.53619" /><path
         d="m 123.85394,16.74012 2.51276,0.720722 -1.02126,3.560587 q -0.64548,0.02405 -1.27196,-0.05655 -0.62647,-0.0806 -1.38946,-0.299441 -1.12921,-0.323887 -1.77398,-0.993264 -0.64185,-0.67955 -0.80951,-1.630461 -0.15456,-0.958166 0.17516,-2.107727 0.32389,-1.129215 1.0006,-1.83794 0.6898,-0.71598 1.66547,-0.931584 0.9786,-0.225777 2.16885,0.115617 0.61039,0.175074 1.11746,0.441627 0.51725,0.269471 0.92686,0.607156 l -0.57348,0.694294 q -0.33989,-0.27365 -0.79319,-0.535787 -0.4402,-0.269391 -0.95903,-0.418204 -1.30216,-0.373491 -2.26222,0.209922 -0.94697,0.576159 -1.33505,1.929182 -0.24802,0.864714 -0.16593,1.614922 0.0952,0.742953 0.58744,1.291514 0.49517,0.538388 1.47179,0.818507 0.47813,0.137141 0.82843,0.182566 0.35031,0.04543 0.6454,0.053 l 0.6186,-2.156699 -1.59718,-0.45811 z"
         id="path353"
         style="stroke-width:1.53619" /><path
         d="m 130.64776,24.061276 -3.73393,-1.972125 3.52906,-6.681768 3.73393,1.972124 -0.39047,0.739299 -2.89169,-1.527284 -1.10221,2.086883 2.72324,1.438316 -0.38553,0.729941 -2.72324,-1.438316 -1.26038,2.386346 2.89169,1.527284 z"
         id="path355"
         style="stroke-width:1.53619" /><path
         d="m 135.98967,28.278646 -0.69997,-0.645977 4.55772,-4.938709 -1.73438,-1.600587 0.56702,-0.614422 4.16096,3.839974 -0.56702,0.614422 -1.7266,-1.59341 z"
         id="path357"
         style="stroke-width:1.53619" /><path
         d="m 145.7677,27.960163 q 0.83565,1.132678 0.79715,1.989649 -0.0237,0.859204 -0.89237,1.500082 -0.48543,0.358137 -0.941,0.418052 -0.45557,0.05991 -0.85879,-0.07662 -0.39693,-0.128012 -0.72532,-0.359204 l -1.49375,3.679807 -0.65973,-0.894219 1.42535,-3.326853 -0.8922,-1.209326 -2.51233,1.85352 -0.56548,-0.766474 6.08069,-4.486145 z m -0.6957,0.447501 -0.64087,-0.86867 -2.25684,1.665026 0.67229,0.911252 q 0.54663,0.740925 1.08751,0.867954 0.5494,0.120746 1.12,-0.300223 0.59614,-0.439818 0.57923,-0.979716 -0.008,-0.546182 -0.56132,-1.295623 z"
         id="path359"
         style="stroke-width:1.53619" /><path
         d="m 144.18485,40.491624 1.74171,-1.80703 -1.25589,-2.719046 -2.50057,0.164073 -0.40383,-0.874322 8.12702,-0.501267 0.35946,0.778242 -5.65519,5.852888 z m 2.39052,-2.421466 1.72029,-1.727193 q 0.0635,-0.06433 0.23426,-0.224775 0.1707,-0.160448 0.35101,-0.325335 0.19435,-0.159716 0.2919,-0.251401 -0.33335,0.06071 -0.66153,0.107369 -0.31413,0.05183 -0.50409,0.06963 l -2.43477,0.180316 z"
         id="path361"
         style="stroke-width:1.53619" /><path
         d="m 146.136,48.265629 -0.23085,-1.087003 5.29913,-5.258377 -0.009,-0.04141 q -0.35794,0.09766 -0.88967,0.243038 -0.53173,0.145383 -1.10111,0.266304 l -4.13061,0.87723 -0.18248,-0.85925 7.39162,-1.569781 0.22865,1.076651 -5.28062,5.243627 0.009,0.04141 q 0.16344,-0.04553 0.49032,-0.136589 0.32907,-0.08071 0.70772,-0.182759 0.39119,-0.0939 0.73282,-0.166451 l 4.17202,-0.886024 0.18468,0.869603 z"
         id="path363"
         style="stroke-width:1.53619" /><path
         d="m 148.26053,54.619037 q -1.00542,4.33e-4 -1.56665,-0.729574 -0.56122,-0.730006 -0.56176,-1.968252 -2.7e-4,-0.634998 0.0948,-1.174787 0.095,-0.539789 0.26419,-0.899694 l 0.91017,-3.92e-4 q -0.16917,0.381072 -0.30651,0.942046 -0.13734,0.571557 -0.13708,1.174805 3.6e-4,0.836081 0.32863,1.269855 0.32827,0.433774 0.88918,0.433533 0.37042,-1.59e-4 0.62435,-0.159018 0.25393,-0.158859 0.46543,-0.550532 0.21149,-0.391673 0.4652,-1.069113 0.34883,-0.973814 0.85662,-1.460864 0.50779,-0.48705 1.3862,-0.487428 0.59267,-2.55e-4 1.02671,0.306474 0.43405,0.306729 0.66712,0.846377 0.23306,0.539648 0.23337,1.259312 2.6e-4,0.613832 -0.11593,1.132464 -0.11619,0.518631 -0.3065,0.952628 l -0.81505,-0.295982 q 0.16917,-0.391654 0.28538,-0.85737 0.11622,-0.465715 0.11601,-0.952547 -3e-4,-0.709081 -0.30737,-1.068781 -0.29649,-0.359704 -0.79391,-0.35949 -0.381,1.63e-4 -0.63493,0.159022 -0.25393,0.158859 -0.46544,0.518782 -0.20093,0.359919 -0.42291,0.973846 -0.24313,0.666852 -0.52868,1.122057 -0.27497,0.465783 -0.66645,0.698784 -0.39148,0.243584 -0.98414,0.243839 z"
         id="path365"
         style="stroke-width:1.53619" /><path
         d="m 145.71397,58.241836 0.38649,-2.703 0.54479,0.0779 0.0732,0.908509 5.98222,0.855375 0.33537,-0.850086 0.54479,0.0779 -0.38649,2.702999 -0.54479,-0.0779 -0.0837,-0.910007 -5.98222,-0.855375 -0.3249,0.851584 z"
         id="path367"
         style="stroke-width:1.53619" /><path
         d="m 144.76628,61.976331 0.26907,-0.9137 6.44666,1.898489 0.66672,-2.263946 0.80202,0.23619 -1.59951,5.43144 -0.80203,-0.23619 0.66373,-2.253794 z"
         id="path369"
         style="stroke-width:1.53619" /><path
         d="m 142.67212,67.18612 1.14002,-2.481116 0.50007,0.229772 -0.18845,0.89176 5.49115,2.523071 0.56351,-0.719431 0.50007,0.229772 -1.14003,2.481115 -0.50006,-0.229771 0.17883,-0.896179 -5.49115,-2.523071 -0.55389,0.72385 z"
         id="path371"
         style="stroke-width:1.53619" /><path
         d="m 141.41172,76.114188 q -0.96364,-0.671885 -1.45418,-1.504179 -0.48792,-0.817561 -0.43934,-1.738425 0.0425,-0.912183 0.6902,-1.841096 0.67188,-0.963639 1.51915,-1.327626 0.84122,-0.355306 1.77968,-0.165437 0.93847,0.189869 1.90211,0.861754 0.94628,0.659779 1.44024,1.468658 0.50265,0.814932 0.46013,1.727115 -0.0486,0.920865 -0.72652,1.893185 -0.64767,0.928913 -1.48888,1.284218 -0.83254,0.361359 -1.77706,0.180171 -0.94189,-0.166453 -1.90553,-0.838338 z m 3.4139,-4.896326 q -1.17199,-0.817157 -2.19416,-0.794451 -1.0135,0.02876 -1.74591,1.079212 -0.73242,1.050453 -0.40292,2.002695 0.33213,0.966977 1.50413,1.784134 1.17199,0.817158 2.17075,0.791027 1.00744,-0.02008 1.73985,-1.070531 0.73847,-1.059134 0.41502,-2.020058 -0.31476,-0.954871 -1.48676,-1.772028 z"
         id="path373"
         style="stroke-width:1.53619" /><path
         d="m 132.60411,79.103949 0.83881,-0.728872 7.16809,2.08561 0.032,-0.02777 q -0.25894,-0.265723 -0.64387,-0.660312 -0.38493,-0.394589 -0.76672,-0.833969 l -2.76972,-3.187504 0.66307,-0.576156 4.95633,5.703954 -0.83083,0.721931 -7.14622,-2.076575 -0.0319,0.02777 q 0.11905,0.120878 0.35716,0.362634 0.23013,0.248698 0.50294,0.530397 0.27178,0.296631 0.50085,0.560259 l 2.79748,3.219459 -0.67105,0.583098 z"
         id="path375"
         style="stroke-width:1.53619" /></g></g></svg>
