<?xml version="1.0" encoding="UTF-8" standalone="no"?>
<!-- Created with Inkscape (http://www.inkscape.org/) -->

<svg
   width="152"
   height="152"
   viewBox="0 0 40.216667 40.216666"
   version="1.1"
   id="svg5"
   xml:space="preserve"
   inkscape:version="1.2 (dc2aedaf03, 2022-05-15)"
   sodipodi:docname="nwasst-logo-with-name-new.svg"
   xmlns:inkscape="http://www.inkscape.org/namespaces/inkscape"
   xmlns:sodipodi="http://sodipodi.sourceforge.net/DTD/sodipodi-0.dtd"
   xmlns:xlink="http://www.w3.org/1999/xlink"
   xmlns="http://www.w3.org/2000/svg"
   xmlns:svg="http://www.w3.org/2000/svg"><sodipodi:namedview
     id="namedview7"
     pagecolor="#ffffff"
     bordercolor="#666666"
     borderopacity="1.0"
     inkscape:showpageshadow="2"
     inkscape:pageopacity="0.0"
     inkscape:pagecheckerboard="0"
     inkscape:deskcolor="#d1d1d1"
     inkscape:document-units="mm"
     showgrid="false"
     inkscape:zoom="1.6819304"
     inkscape:cx="136.74763"
     inkscape:cy="182.52836"
     inkscape:window-width="1680"
     inkscape:window-height="987"
     inkscape:window-x="-8"
     inkscape:window-y="-8"
     inkscape:window-maximized="1"
     inkscape:current-layer="layer1"
     showguides="true" /><defs
     id="defs2" /><g
     inkscape:label="Layer 1"
     inkscape:groupmode="layer"
     id="layer1"
     transform="translate(-51.018213,-48.187934)"><g
       id="g12186"
       transform="matrix(0.60082707,0,0,0.5950336,-19.609335,-19.880545)"
       style="stroke-width:1.67245"><g
         id="g12116"
         transform="translate(-3.4947657,0.93237688)"
         style="stroke-width:1.67245"><path
           style="fill:#ffaa00;fill-opacity:1;stroke:#000000;stroke-width:0.00575263;stroke-linecap:butt;stroke-linejoin:miter;stroke-miterlimit:4;stroke-dasharray:none;stroke-opacity:1"
           d="m 142.83104,130.92662 1.26862,-0.32938 0.43673,2.63254 -1.26863,0.32938 z"
           id="path34788"
           sodipodi:nodetypes="ccccc" /><path
           style="fill:#ffaa00;fill-opacity:1;stroke:#000000;stroke-width:0.00575263;stroke-linecap:butt;stroke-linejoin:miter;stroke-miterlimit:4;stroke-dasharray:none;stroke-opacity:1"
           d="m 140.83455,139.72945 0.57349,1.17968 -3.48817,1.43133 -0.57352,-1.17968 z"
           id="path34903"
           sodipodi:nodetypes="ccccc" /><path
           style="fill:#ffaa00;fill-opacity:1;stroke:#000000;stroke-width:0.00575263;stroke-linecap:butt;stroke-linejoin:miter;stroke-miterlimit:4;stroke-dasharray:none;stroke-opacity:1"
           d="m 141.27073,135.89479 -0.35224,0.92182 -2.68503,-1.0479 0.35617,-0.93299 z"
           id="path34905"
           sodipodi:nodetypes="ccccc" /><path
           style="fill:#ffaa00;fill-opacity:1;stroke:#000000;stroke-width:0.0151482;stroke-linecap:round;stroke-miterlimit:4;stroke-dasharray:none;stroke-opacity:1"
           id="path33087"
           sodipodi:type="arc"
           sodipodi:cx="36.984444"
           sodipodi:cy="198.66602"
           sodipodi:rx="4.4836192"
           sodipodi:ry="4.324954"
           sodipodi:start="2.5857844"
           sodipodi:end="0.44378976"
           sodipodi:open="true"
           sodipodi:arc-type="arc"
           transform="matrix(0.78911763,-0.61424211,0.58670526,0.80980055,0,0)"
           d="m 33.175725,200.94799 a 4.4836192,4.324954 0 0 1 0.764973,-5.45765 4.4836192,4.324954 0 0 1 5.7004,-0.3083 4.4836192,4.324954 0 0 1 1.392641,5.34096" /><g
           id="g8624"
           transform="matrix(5.9686684,0,0,5.9686808,-390.9438,-399.35448)"
           style="fill:currentColor;fill-opacity:1;stroke-width:0.280203"><path
             style="fill:currentColor;fill-opacity:1;stroke:#000000;stroke-width:0.00741374;stroke-linecap:butt;stroke-linejoin:miter;stroke-miterlimit:4;stroke-dasharray:none;stroke-opacity:1"
             d="m 89.484142,92.059233 1.971097,-1.985956 1.98586,1.983972 -0.009,2.385439 -1.55676,-0.0066 v -1.686844 l -0.830277,0.01238 -0.0072,1.682544 -1.554246,-0.0024 z"
             id="path28142"
             sodipodi:nodetypes="cccccccccc" /><path
             id="path7506"
             style="fill:currentColor;fill-opacity:1;stroke:#000000;stroke-width:0.00364271;stroke-linecap:butt;stroke-linejoin:miter;stroke-miterlimit:4;stroke-dasharray:none;stroke-opacity:1"
             d="m 91.459981,88.714548 -0.0023,0.0022 -0.193271,0.193726 -2.601335,2.607103 0.414462,0.413763 c 0.747952,-0.75072 1.879527,-1.883921 2.383026,-2.388148 l 2.38753,2.384364 0.413562,-0.414484 c -0.464001,-0.462738 -0.95875,-0.95721 -1.476108,-1.474121 l 7.2e-4,-1.286522 h -0.58576 v 0.7021 c -0.08976,-0.08971 -0.257363,-0.257013 -0.326202,-0.325821 l 3.59e-4,-3.59e-4 -0.0023,-0.0023 z" /></g><path
           style="fill:#ffaa00;fill-opacity:1;stroke:#000000;stroke-width:0.00575263;stroke-linecap:butt;stroke-linejoin:miter;stroke-miterlimit:4;stroke-dasharray:none;stroke-opacity:1"
           d="m 148.84668,133.68609 -0.8592,-0.48539 1.43554,-2.49937 0.86965,0.49103 z"
           id="path9661"
           sodipodi:nodetypes="ccccc" /></g><g
         id="g12106"
         style="stroke-width:1.67245"><g
           id="g12081"
           style="stroke-width:1.67245"><path
             id="path10821-3"
             style="fill:#ffaa00;fill-opacity:0;stroke:#082f87;stroke-width:0.668982;stroke-linecap:round;stroke-dasharray:none;stroke-opacity:0"
             d="m 126.02707,144.18207 c 0.46841,-2.94746 1.46042,-5.79763 2.90267,-8.39659 3.7065,-6.72044 10.66282,-11.56668 18.43491,-12.65299 4.85118,-0.69575 10.18218,0.0745 14.70991,2.33116 3.81239,1.84521 7.22317,4.77006 9.58357,8.15687 4.6982,6.55665 5.8904,15.23436 3.35251,22.65065 -1.84284,5.66451 -5.80602,10.58509 -10.93001,13.61985 -3.66894,2.20889 -7.98733,3.51058 -12.39347,3.58595 -7.24421,0.21829 -14.58159,-2.95286 -19.42664,-8.39508 -5.14934,-5.64641 -7.4116,-13.56875 -6.23345,-20.89982 z" /><text
             xml:space="preserve"
             style="font-style:normal;font-weight:normal;font-size:10.5833px;line-height:1.25;font-family:sans-serif;letter-spacing:0.079375px;fill:#000000;fill-opacity:1;stroke:none;stroke-width:0.442504"
             id="text11971"><textPath
               xlink:href="#path10821-3"
               id="textPath11981"
               style="stroke-width:0.442504"><tspan
                 id="tspan11969"
                 style="font-style:normal;font-variant:normal;font-weight:bold;font-stretch:normal;font-size:10.5833px;font-family:Alef;-inkscape-font-specification:'Alef, Bold';font-variant-ligatures:normal;font-variant-caps:normal;font-variant-numeric:normal;font-variant-east-asian:normal;stroke-width:0.442504">NWA SECOND</tspan></textPath></text></g><g
           id="g12075"
           style="stroke-width:1.67245"><path
             id="path10821-3-6-6"
             style="fill:#ffaa00;fill-opacity:0;stroke:#082f87;stroke-width:0.668982;stroke-linecap:round;stroke-dasharray:none;stroke-opacity:0"
             d="m 118.32993,147.69778 c -0.0644,3.89595 0.55907,7.78496 1.81142,11.4526 3.20918,9.47865 10.97162,17.28073 20.61377,20.43189 6.01446,1.98969 12.96754,2.20248 19.23182,0.32254 5.26233,-1.51231 10.25559,-4.5036 14.01635,-8.32601 7.44416,-7.37098 10.90405,-18.26082 9.33707,-28.3705 -1.07527,-7.70016 -5.01408,-14.92223 -10.85167,-19.98127 -4.17183,-3.66864 -9.37295,-6.31721 -14.96029,-7.40866 -9.16514,-1.91584 -19.20785,0.50589 -26.58921,6.41064 -7.81413,6.0986 -12.46585,15.77556 -12.60926,25.46877 z" /><g
             aria-label="STAGE TRANSITION"
             id="text11975"
             style="font-weight:bold;font-size:10.5833px;line-height:1.25;font-family:Alef;-inkscape-font-specification:'Alef, Bold';letter-spacing:0.079375px;stroke-width:0.442504"><path
               d="m 119.52631,148.50725 q -0.12983,0.44097 -0.20352,0.93439 -0.0681,0.49814 -0.0213,1.06983 0.0303,0.37083 0.1226,0.67437 0.0922,0.30355 0.25458,0.51322 0.16275,0.21481 0.39434,0.3203 0.23715,0.11021 0.55133,0.0845 0.33993,-0.0278 0.52941,-0.18332 0.18991,-0.15035 0.29844,-0.40811 0.10852,-0.25775 0.16742,-0.61515 0.0589,-0.35739 0.13207,-0.79373 0.0844,-0.4891 0.21161,-0.89875 0.12763,-0.4045 0.35724,-0.70327 0.22961,-0.29878 0.58779,-0.48364 0.35819,-0.18486 0.90413,-0.22954 0.36568,-0.0299 0.6638,0.0649 0.29854,0.10001 0.52656,0.28874 0.23318,0.18831 0.40446,0.44391 0.1717,0.26075 0.28844,0.54674 0.11715,0.29113 0.18364,0.59679 0.0665,0.30565 0.0893,0.58377 0.016,0.19572 0.0177,0.47037 0.002,0.27981 -0.0292,0.59347 -0.0258,0.31839 -0.0864,0.65518 -0.0602,0.34195 -0.16878,0.66193 l -0.9261,-0.29234 q 0.11564,-0.42425 0.17168,-0.87993 0.0564,-0.45052 0.0164,-0.93981 -0.0253,-0.30902 -0.0979,-0.56233 -0.0674,-0.25372 -0.19118,-0.43544 -0.12333,-0.17656 -0.30688,-0.26524 -0.18354,-0.0887 -0.43076,-0.0684 -0.31933,0.0261 -0.48947,0.16449 -0.16973,0.14352 -0.26365,0.38971 -0.0939,0.24619 -0.14851,0.59286 -0.049,0.3514 -0.12692,0.79331 -0.0848,0.48395 -0.22234,0.89444 -0.13193,0.41522 -0.37615,0.72556 -0.23864,0.31507 -0.61659,0.51192 -0.37794,0.19685 -0.94963,0.24363 -0.50474,0.0413 -0.87834,-0.0889 -0.37359,-0.13015 -0.64189,-0.36744 -0.26314,-0.23771 -0.43433,-0.55553 -0.17119,-0.31783 -0.27626,-0.65143 -0.10508,-0.33361 -0.15181,-0.65125 -0.0519,-0.31721 -0.0717,-0.55928 -0.0142,-0.23734 -0.0129,-0.53818 0.002,-0.29568 0.0318,-0.62479 0.0301,-0.32911 0.0954,-0.67147 0.0709,-0.33764 0.18465,-0.65804 z"
               id="path11989"
               style="stroke-width:0.442504" /><path
               d="m 127.59365,158.31787 -1.01793,0.29338 -0.60108,-2.08551 -6.12246,1.76461 -0.39929,-1.38538 6.12246,-1.7646 -0.60681,-2.10537 1.01793,-0.29339 z"
               id="path11991"
               style="stroke-width:0.442504" /><path
               d="m 129.24004,161.28752 -5.16559,6.03414 -0.70088,-1.27766 1.59497,-1.84157 -1.17806,-2.14755 -2.41018,0.3555 -0.70087,-1.27766 7.86471,-1.1138 z m -1.69357,0.10386 -2.6614,0.49921 0.81023,1.47701 z"
               id="path11993"
               style="stroke-width:0.442504" /><path
               d="m 129.03104,172.3829 q -0.23654,-0.0931 -0.49916,-0.24618 -0.25878,-0.15652 -0.52597,-0.36106 -0.26719,-0.20454 -0.52859,-0.44902 -0.26524,-0.24102 -0.50358,-0.50623 -0.60449,-0.67262 -0.91862,-1.30048 -0.31413,-0.62785 -0.29179,-1.25239 0.0224,-0.62455 0.40423,-1.2665 0.38572,-0.6454 1.17749,-1.35697 0.82637,-0.74265 1.54297,-1.074 0.71659,-0.33135 1.34882,-0.31592 0.63607,0.012 1.19702,0.33465 0.5644,0.32651 1.07562,0.89536 0.21762,0.24214 0.41178,0.51231 0.20146,0.27056 0.36911,0.55761 0.16765,0.28704 0.29112,0.57905 0.13077,0.2924 0.21085,0.57478 l -1.01547,0.37761 q -0.16438,-0.554 -0.42563,-1.00705 -0.2578,-0.4492 -0.56177,-0.78744 -0.34542,-0.38435 -0.72057,-0.5544 -0.36785,-0.16965 -0.78003,-0.12578 -0.40833,0.0404 -0.87213,0.29744 -0.45651,0.25741 -0.97539,0.72373 -0.54963,0.49395 -0.86607,0.93813 -0.31259,0.44073 -0.40085,0.8605 -0.0848,0.4236 0.0547,0.82625 0.14682,0.40303 0.51988,0.81814 0.18652,0.20755 0.41071,0.39515 0.22764,0.19145 0.48179,0.36602 l 1.33371,-1.19861 -0.79101,-0.88017 0.78024,-0.7012 1.73401,1.92946 z"
               id="path11995"
               style="stroke-width:0.442504" /><path
               d="m 138.10479,170.36538 -0.62474,0.85554 -2.42472,-1.77063 -0.9935,1.36052 1.71525,1.25254 -0.62475,0.85553 -1.71525,-1.25254 -1.51463,2.07416 2.51236,1.83462 -0.62475,0.85554 -3.67672,-2.68489 4.38237,-6.00128 z"
               id="path11997"
               style="stroke-width:0.442504" /><path
               d="m 145.45691,173.35125 -0.34659,1.00106 -2.05096,-0.71009 -2.08462,6.02102 -1.36242,-0.4717 2.08462,-6.02102 -2.07049,-0.71686 0.34659,-1.00106 z"
               id="path11999"
               style="stroke-width:0.442504" /><path
               d="m 148.11016,173.61451 q 0.49761,0.0604 0.9027,0.23973 0.40571,0.17419 0.68299,0.46292 0.27728,0.28874 0.39986,0.69404 0.12771,0.40592 0.0654,0.91891 -0.0504,0.41553 -0.23068,0.74242 -0.18023,0.3269 -0.46274,0.55288 -0.28189,0.22085 -0.6449,0.33815 -0.36301,0.1173 -0.78477,0.11816 l -0.007,0.0148 q 0.19088,0.1429 0.35966,0.38202 0.1694,0.23399 0.31844,0.50716 0.15416,0.27379 0.28656,0.55535 0.13752,0.28218 0.24925,0.51958 l 0.82703,1.67769 -1.61594,-0.19618 q -0.14342,-0.31933 -0.32306,-0.72635 -0.17388,-0.41153 -0.35351,-0.81855 -0.1745,-0.4064 -0.33533,-0.75387 -0.15508,-0.35199 -0.25578,-0.55161 -0.0974,-0.18361 -0.18572,-0.31406 -0.0831,-0.12982 -0.17702,-0.2141 -0.0939,-0.0843 -0.20813,-0.12938 -0.10913,-0.0445 -0.25214,-0.067 l -0.041,-0.005 -0.39734,3.27292 -1.43126,-0.17376 0.89556,-7.37688 z m -0.92755,3.05238 q 0.33344,0.0405 0.59617,0.0203 0.26848,-0.0247 0.45784,-0.12661 0.19512,-0.10645 0.31237,-0.30044 0.11725,-0.19399 0.15338,-0.49153 0.0361,-0.29753 -0.0313,-0.51394 -0.0674,-0.21641 -0.23203,-0.36133 -0.15885,-0.14942 -0.41425,-0.23248 -0.24965,-0.0876 -0.5831,-0.12805 l -0.73871,-0.0897 -0.25908,2.13406 z"
               id="path12001"
               style="stroke-width:0.442504" /><path
               d="m 154.16611,173.57579 3.53589,7.11279 -1.44995,0.14589 -1.0719,-2.18776 -2.43715,0.24523 -0.61456,2.35746 -1.44995,0.14589 2.04796,-7.67464 z m -0.56617,1.59951 -0.58045,2.64488 1.67618,-0.16866 z"
               id="path12003"
               style="stroke-width:0.442504" /><path
               d="m 162.32687,171.23278 2.52075,6.99044 -1.50211,0.54166 -4.94215,-4.1232 1.88444,5.22581 -1.35629,0.48908 -2.52075,-6.99044 1.50211,-0.54167 4.94215,4.12321 -1.88444,-5.22582 z"
               id="path12005"
               style="stroke-width:0.442504" /><path
               d="m 165.84056,176.207 q 0.45018,-0.093 0.9202,-0.26022 0.47158,-0.17436 0.95397,-0.48472 0.3129,-0.20131 0.53731,-0.42557 0.2244,-0.22426 0.33298,-0.46617 0.11293,-0.24471 0.097,-0.49869 -0.0144,-0.26112 -0.18494,-0.52622 -0.18454,-0.28683 -0.41092,-0.38082 -0.22204,-0.0968 -0.50054,-0.0712 -0.2785,0.0256 -0.62156,0.14181 -0.34305,0.11625 -0.76247,0.25706 -0.47127,0.15573 -0.89258,0.2363 -0.41696,0.0778 -0.78865,0.0158 -0.37168,-0.062 -0.70337,-0.29098 -0.33169,-0.22902 -0.62807,-0.68969 -0.19852,-0.30855 -0.25514,-0.61623 -0.0523,-0.31047 0.007,-0.6005 0.0564,-0.29436 0.20131,-0.56579 0.14924,-0.27422 0.34663,-0.51182 0.20173,-0.24039 0.44011,-0.44292 0.23839,-0.20253 0.47307,-0.35351 0.16514,-0.10625 0.40665,-0.23706 0.24587,-0.1336 0.53737,-0.25356 0.29306,-0.1271 0.61873,-0.23216 0.33001,-0.10786 0.66346,-0.16263 l 0.17796,0.9547 q -0.42876,0.0977 -0.85718,0.26268 -0.42407,0.16223 -0.83693,0.42785 -0.26075,0.16776 -0.45009,0.35102 -0.19212,0.17892 -0.29421,0.37363 -0.0977,0.19192 -0.0896,0.3956 0.008,0.20368 0.14235,0.41229 0.17336,0.26944 0.37552,0.35444 0.20651,0.0822 0.46793,0.0492 0.26142,-0.033 0.59299,-0.14801 0.33311,-0.12215 0.75968,-0.26141 0.46692,-0.15293 0.89382,-0.22481 0.42845,-0.079 0.81722,-0.01 0.39031,0.0623 0.74187,0.30308 0.35157,0.24081 0.66193,0.7232 0.27401,0.4259 0.33501,0.81678 0.061,0.39089 -0.0221,0.73929 -0.0859,0.34406 -0.28572,0.64469 -0.19985,0.30063 -0.44474,0.55036 -0.24489,0.24972 -0.50315,0.44046 -0.25546,0.19508 -0.45971,0.3265 -0.20271,0.12427 -0.46875,0.26471 -0.2617,0.13764 -0.56624,0.26599 -0.30455,0.12834 -0.63736,0.23186 -0.33126,0.0964 -0.6675,0.1468 z"
               id="path12007"
               style="stroke-width:0.442504" /><path
               d="m 168.19726,166.88304 4.95977,5.53364 -1.07364,0.96229 -4.95976,-5.53364 z"
               id="path12009"
               style="stroke-width:0.442504" /><path
               d="m 172.31165,162.18013 0.82011,0.67058 -1.37386,1.68022 4.93267,4.03326 -0.91264,1.11615 -4.93266,-4.03326 -1.38695,1.69623 -0.82011,-0.67057 z"
               id="path12011"
               style="stroke-width:0.442504" /><path
               d="m 173.11941,160.49295 6.43225,3.72111 -0.72197,1.24798 -6.43224,-3.72111 z"
               id="path12013"
               style="stroke-width:0.442504" /><path
               d="m 174.57319,156.96356 q 0.31947,-0.87359 0.80648,-1.37778 0.48216,-0.50597 1.09444,-0.70574 0.61406,-0.20462 1.3393,-0.12648 0.72039,0.0764 1.51633,0.36744 0.79594,0.29107 1.40049,0.69923 0.59971,0.40639 0.93689,0.95888 0.33896,0.54764 0.38581,1.24706 0.042,0.69765 -0.27747,1.57124 -0.31414,0.85903 -0.79145,1.36677 -0.4773,0.50774 -1.0865,0.71414 -0.60743,0.20154 -1.33623,0.13311 -0.72702,-0.0733 -1.54237,-0.37146 -0.81535,-0.29817 -1.41813,-0.71119 -0.60101,-0.41787 -0.93511,-0.96373 -0.33233,-0.55071 -0.36948,-1.24659 -0.0371,-0.69587 0.277,-1.5549 z m 0.99492,0.36384 q -0.18635,0.50959 -0.14735,0.91452 0.0408,0.40008 0.29447,0.72946 0.25063,0.32275 0.70887,0.58936 0.45338,0.26485 1.09886,0.5009 0.64549,0.23605 1.16762,0.32795 0.51727,0.0901 0.92184,0.007 0.40149,-0.0898 0.69074,-0.36916 0.29102,-0.28424 0.47738,-0.79383 0.18458,-0.50474 0.14866,-0.90304 -0.039,-0.40493 -0.28963,-0.72768 -0.24885,-0.32761 -0.70708,-0.59422 -0.45646,-0.27147 -1.1068,-0.5093 -0.65034,-0.23783 -1.17424,-0.32487 -0.52213,-0.0919 -0.92362,-0.002 -0.39971,0.0849 -0.68588,0.37093 -0.28925,0.27939 -0.47384,0.78413 z"
               id="path12015"
               style="stroke-width:0.442504" /><path
               d="m 176.46844,147.71948 7.38672,0.81046 -0.17415,1.58727 -5.87657,2.62518 5.52206,0.60587 -0.15724,1.43317 -7.38672,-0.81046 0.17415,-1.58728 5.87657,-2.62517 -5.52206,-0.60587 z"
               id="path12017"
               style="stroke-width:0.442504" /></g></g></g></g></g></svg>
